<?xml version="1.0" encoding="utf-8"?>
<!-- Generator: $$$/GeneralStr/196=Adobe Illustrator 27.6.0, SVG Export Plug-In . SVG Version: 6.00 Build 0)  -->
<svg version="1.1" id="Calque_1" xmlns="http://www.w3.org/2000/svg" xmlns:xlink="http://www.w3.org/1999/xlink" x="0px" y="0px"
	 viewBox="0 0 1378 380" style="enable-background:new 0 0 1378 380;" xml:space="preserve">
<style type="text/css">
	.st0{fill:#084D49;}
	.st1{fill:#FAD6C4;}
	.st2{fill:#383732;}
</style>
<g>
	<circle class="st0" cx="190" cy="190.2" r="189.8"/>
	<g>
		<path class="st1" d="M192.4,195.8C192.4,195.8,192.3,195.8,192.4,195.8L192.4,195.8C192.3,195.8,192.3,195.8,192.4,195.8
			c-0.3-0.2-0.5-0.4-0.7-0.5c-10.2-7.8-61.8-45.8-102.6-45c-4.7-0.1-9.3,0.6-13.6,1.9c-6.8,1.9-13.1,5.4-18.5,10.8l0,0
			c-8.3,8-13.6,19.2-14,31.6c-0.4,14.6,6.1,27.7,16.5,36.3c15,12.7,38.9,13.2,43.9,13.2c0,0,0,0,0,0c0.6-3.6,1.5-7.2,2.6-10.6
			l0.1,0.1c-0.1,0.1-0.1,0.2-0.1,0.2l5.1,11.2l0,0l0,0l30.3,66.7c5.2,2.2,10.9,3.7,16.7,4.5l-27.8-61.3l0.1,0.1l-16.6-37
			c2.8-4.1,6.1-7.8,9.8-11.2l0.2,0.4l0,0l49.6,109c4.7-0.5,9.2-1.6,13.5-3.1l-39-85.9l-0.1-0.2l-12.6-28.6c3.8-2.1,7.8-3.9,12-5.2
			l51.5,114.3c4-2.4,7.7-5.2,11-8.4l-49.4-108.6c2-0.2,3.9-0.3,6-0.3c2.8,0,5.5,0.2,8.2,0.5l34.8,75l10.3,21.3
			c3.1-5,5.6-10.4,7.3-16.2L192.4,195.8C192.3,195.8,192.4,195.8,192.4,195.8z"/>
		<path class="st1" d="M65.3,149.7c5.8-4.9,12.4-7.8,19.3-9.1c4.4-0.9,9-1.2,13.7-0.7c35.8,2.6,77.2,35.7,93.1,49.6l0,0l0,0
			c1.2,1.1,2.3,2.1,3.2,2.9l1.1,0.9l0,0l9,8l0,0c2.1,1.8,4.2,3.6,5.9,4.9l-7.8-9.9c-0.8-1-1.6-2.1-2.7-3.4l0,0l0,0
			c-13.1-16.5-48-56.6-82.7-65.5c-4.5-1.3-9.1-1.9-13.6-1.8c-7.1,0-14,1.7-20.7,5.5l0,0c-8,4.3-14.7,11.1-19,19.6
			C64.5,150.4,64.9,150,65.3,149.7L65.3,149.7z"/>
		<path class="st1" d="M291.1,137c-1.6-0.4-3.2-0.7-4.9-0.9l0.8-38.7c0.4-5.5,0.9-15-0.6-19.7c-0.3-1.2-0.7-2.5-1.3-3.7
			c-4.2-8.8-14.9-12.4-23.7-8.2c-8.8,4.2-12.6,14.7-8.3,23.5c4.2,8.8,14.9,12.4,23.7,8.2c1.4-0.6,2.6-1.4,3.7-2.3l-0.4,5.4l0,0
			l-0.1,1.6l0,0l-2.3,33.2c-8.7-0.1-17.2,1.6-24.9,4.9l-21.7-32.5c-2.8-4.8-7.9-12.8-11.7-15.8c-0.9-0.8-2-1.6-3.1-2.2
			c-8.5-4.8-19.3-1.7-24.1,6.8s-1.9,19.2,6.6,24s19.3,1.7,24.1-6.8c0.7-1.3,1.3-2.7,1.7-4l2.8,4.7l0,0l0.8,1.4l0,0l17,28.4
			c-13.6,8.1-24,21.5-27.9,38c-7.8,32.7,12.6,65.4,45.6,73.2s66-12.5,73.8-45.1C344.5,177.5,324.1,144.7,291.1,137z M308.9,182.8
			c-4.9,8.4-15.8,11.2-24.3,6.4s-11.4-15.6-6.4-24c4.9-8.4,15.8-11.2,24.3-6.4S313.8,174.4,308.9,182.8z"/>
		<path class="st1" d="M113.2,279.4c0,0-5-8.9-5.7-20.1L97,287.5l28.5,8.7C117,288.9,113.2,279.4,113.2,279.4z"/>
	</g>
</g>
<g>
	<path class="st2" d="M528.5,175.3c-3.7-2.6-7.9-4-12.5-4.3c4-1.1,7.3-3,9.9-5.8c2.6-2.8,4.5-6,5.7-9.7c1.2-3.7,1.8-7.4,1.8-11.1
		c0-5.6-1.4-10.5-4.1-14.7c-2.8-4.2-7.1-7.4-12.9-9.7c-5.8-2.3-13.4-3.4-22.6-3.4c-3.8,0-7.3,0.1-10.3,0.3c-3.1,0.2-5.9,0.4-8.6,0.5
		c-2.7,0.2-5.3,0.3-7.8,0.3l-9.6-0.2v115.3h10.1c2.8,0.2,6.7,0.4,11.7,0.7c5,0.3,9.8,0.4,14.4,0.4c12,0,21.5-1.5,28.3-4.6
		c6.8-3.1,11.6-7.3,14.4-12.6c2.8-5.4,4.2-11.6,4.2-18.6c0-4.8-1.1-9.1-3.3-13.1C535.1,181.1,532.2,177.8,528.5,175.3z M477.5,131.7
		c0.7-0.2,1.9-0.5,3.6-0.6c1.8-0.2,3.6-0.3,5.5-0.4c1.9-0.1,3.3-0.1,4.2-0.1c7.4,0,13.2,1.3,17.2,3.9c4,2.6,6,6.8,6,12.4
		c0,6.8-1.7,11.9-5.1,15.1c-3.4,3.2-7.8,4.8-13.2,4.8c-1.2,0-2.6,0-4.2,0c-1.5,0-3.2,0-4.8,0c-1.7,0-3.3,0-4.9-0.1
		c-1.6-0.1-3-0.2-4.2-0.4V131.7z M513.5,215.4c-4.4,3-10.6,4.5-18.6,4.5c-1.8,0-3.9,0-6.3-0.2c-2.4-0.1-4.6-0.3-6.7-0.5
		c-2.1-0.3-3.5-0.6-4.4-1.1h0v-37c1-0.2,2.2-0.3,3.6-0.3s3-0.1,4.6-0.1c1.7,0,3.3-0.1,5,0c1.6,0,3.1,0,4.5,0
		c8.6,0,14.9,1.5,18.9,4.6c4,3.1,6,7.9,6,14.4C520.1,207.2,517.9,212.4,513.5,215.4z"/>
	<path class="st2" d="M617.3,153.3c-3-2.7-6.5-4.7-10.4-6c-3.9-1.3-8-1.9-12.4-1.8c-8.6,0.1-15.9,2.1-21.8,5.9
		c-5.9,3.8-10.4,9.1-13.5,15.7c-3.1,6.6-4.6,14.1-4.6,22.5c0,13.9,3.4,24.9,10.3,32.7c6.8,7.9,16.6,11.8,29.3,11.8
		c3.9,0,7.8-0.3,11.7-1.1c4-0.7,7.6-1.7,10.9-2.9s5.9-2.6,7.8-4.2l-3.7-11.2c-1.4,0.8-3.4,1.6-6,2.3c-2.6,0.7-5.4,1.2-8.3,1.7
		c-2.9,0.4-5.4,0.6-7.5,0.6c-4.6,0-8.7-0.8-12.4-2.3c-3.7-1.6-6.6-4.2-8.8-7.8c-2.2-3.6-3.5-8.6-3.7-14.8c0-0.1,0-0.3,0-0.4h52.5
		c0.4-1.9,0.7-4.2,0.7-6.8c0-2.6,0.1-5.5,0.1-8.7c-0.1-5.8-1.1-10.8-2.9-15C622.7,159.4,620.3,156,617.3,153.3z M609,182.4h-34.5
		c0.3-3.5,0.9-6.5,1.7-9c1.6-5.1,4-8.8,7-10.9c3-2.2,6.5-3.2,10.3-3.2c4.5,0,7.8,1.1,10.1,3.2c2.3,2.1,3.8,4.9,4.6,8.5
		C609,174.4,609.2,178.2,609,182.4z"/>
	<path class="st2" d="M704.9,153.3c-3-2.7-6.5-4.7-10.4-6c-3.9-1.3-8-1.9-12.4-1.8c-8.6,0.1-15.9,2.1-21.8,5.9
		c-5.9,3.8-10.4,9.1-13.5,15.7c-3.1,6.6-4.6,14.1-4.6,22.5c0,13.9,3.4,24.9,10.3,32.7c6.8,7.9,16.6,11.8,29.3,11.8
		c3.9,0,7.8-0.3,11.7-1.1c4-0.7,7.6-1.7,10.9-2.9s5.9-2.6,7.8-4.2l-3.7-11.2c-1.4,0.8-3.4,1.6-6,2.3c-2.6,0.7-5.4,1.2-8.3,1.7
		c-2.9,0.4-5.4,0.6-7.5,0.6c-4.6,0-8.7-0.8-12.4-2.3c-3.7-1.6-6.6-4.2-8.8-7.8c-2.2-3.6-3.5-8.6-3.7-14.8c0-0.1,0-0.3,0-0.4h52.5
		c0.4-1.9,0.7-4.2,0.7-6.8c0-2.6,0.1-5.5,0.1-8.7c-0.1-5.8-1.1-10.8-2.9-15C710.3,159.4,707.9,156,704.9,153.3z M696.5,182.4H662
		c0.3-3.5,0.9-6.5,1.7-9c1.6-5.1,4-8.8,7-10.9c3-2.2,6.5-3.2,10.3-3.2c4.5,0,7.8,1.1,10.1,3.2c2.3,2.1,3.8,4.9,4.6,8.5
		C696.5,174.4,696.8,178.2,696.5,182.4z"/>
	<polygon class="st2" points="755.8,117.7 735.8,117.7 735.8,232.9 800,232.9 800,216.8 755.8,216.8 	"/>
	<path class="st2" d="M871.3,153.3c-3-2.7-6.5-4.7-10.4-6c-3.9-1.3-8-1.9-12.4-1.8c-8.6,0.1-15.9,2.1-21.8,5.9
		c-5.9,3.8-10.4,9.1-13.5,15.7c-3.1,6.6-4.6,14.1-4.6,22.5c0,13.9,3.4,24.9,10.3,32.7c6.8,7.9,16.6,11.8,29.3,11.8
		c3.9,0,7.8-0.3,11.7-1.1c4-0.7,7.6-1.7,10.9-2.9s5.9-2.6,7.8-4.2l-3.7-11.2c-1.4,0.8-3.4,1.6-6,2.3c-2.6,0.7-5.4,1.2-8.3,1.7
		c-2.9,0.4-5.4,0.6-7.5,0.6c-4.6,0-8.7-0.8-12.4-2.3c-3.7-1.6-6.6-4.2-8.8-7.8c-2.2-3.6-3.5-8.6-3.7-14.8c0-0.1,0-0.3,0-0.4h52.5
		c0.4-1.9,0.7-4.2,0.7-6.8c0-2.6,0.1-5.5,0.1-8.7c-0.1-5.8-1.1-10.8-2.9-15C876.7,159.4,874.3,156,871.3,153.3z M862.9,182.4h-34.5
		c0.3-3.5,0.9-6.5,1.7-9c1.6-5.1,4-8.8,7-10.9c3-2.2,6.5-3.2,10.3-3.2c4.5,0,7.8,1.1,10.1,3.2c2.3,2.1,3.8,4.9,4.6,8.5
		C863,174.4,863.2,178.2,862.9,182.4z"/>
	<path class="st2" d="M950.5,147.6c-4.9-1.6-10.8-2.4-17.8-2.4c-4.5,0-9.1,0.5-13.8,1.6c-4.6,1.1-8.7,2.2-12.2,3.6
		c-3.5,1.3-5.9,2.4-7.3,3.2l4.5,13.6c1.8-1,4.1-2,7.1-3c3-1,6.2-1.7,9.7-2.4c3.5-0.6,6.8-0.9,10.1-0.9c4.7,0,8.3,0.8,10.9,2.3
		c2.6,1.5,3.8,4.7,3.8,9.6v7.5l0,0c-3.4,0-7,0.2-10.9,0.5c-3.9,0.3-7.8,0.9-11.7,1.7c-3.9,0.8-7.5,1.9-10.9,3.3
		c-5,2.1-8.9,5.1-11.9,8.9s-4.4,8.5-4.4,14c0,5.2,1.2,9.7,3.5,13.5c2.3,3.8,5.5,6.8,9.5,8.9c4,2.1,8.7,3.1,14,3.1
		c5.3,0,10-0.9,14.2-2.7c4.2-1.8,7.5-3.8,9.7-5.8l0,0v7.3h18.8v-58.7c0-7.7-1.3-13.7-3.8-17.9C959,152.1,955.3,149.2,950.5,147.6z
		 M942.2,217c-1.7,0.9-3.7,1.6-6,2.2c-2.3,0.6-4.5,1-6.8,1c-4.4,0-7.8-1.1-10.2-3.2c-2.4-2.1-3.6-5.4-3.6-9.6c0-3.3,0.8-5.8,2.5-7.5
		c1.7-1.8,3.8-3.2,6.2-4.3c1.8-0.8,3.9-1.5,6.4-2.1c2.5-0.6,5.1-1,7.8-1.3c2.7-0.3,5-0.4,6.9-0.4l0,0v22.9
		C945,215.4,943.9,216.2,942.2,217z"/>
	<path class="st2" d="M1030.5,145.3c-3.6,0-7.1,0.7-10.5,2.1c-3.4,1.4-6.3,3.1-8.8,5.2c-2,1.7-3.5,3.3-4.4,4.9l-1.1-10.8h-17v86.2
		h19.8v-62.1c1-0.9,2.1-1.8,3.4-2.8c1.9-1.4,4.1-2.5,6.7-3.5s5.6-1.4,9-1.4s5.8,0.2,7.4,0.7c1.6,0.5,2.7,0.9,3.5,1.4v-18.8
		c-0.7-0.4-1.7-0.7-3.1-0.9C1034,145.4,1032.4,145.3,1030.5,145.3z"/>
	<path class="st2" d="M1101.9,145.3c-3.8,0.1-7.5,0.7-11.2,1.9c-3.7,1.1-7.2,2.5-10.3,4.1c-3.2,1.6-5.8,3.2-7.9,4.7l-0.2-9.3h-17.8
		v86.2h19.7v-64c2.1-1.6,4.2-2.9,6.6-4c2.3-1.1,4.6-1.9,6.8-2.5c2.2-0.6,4.2-0.9,5.9-0.9c6-0.3,9.9,1,11.8,4c1.9,3,2.8,8,2.8,15.1
		v52.2h19.9v-54c0-12.6-2.1-21.4-6.2-26.5C1117.7,147.4,1111,145.1,1101.9,145.3z"/>
	<path class="st2" d="M1164,108c-2.3,0-4.4,0.6-6.5,1.7c-2.1,1.2-3.8,2.7-5.1,4.7c-1.3,1.9-2,4.1-2,6.5c0,3.5,1.2,6.2,3.6,8.3
		c2.4,2.1,5.2,3.1,8.4,3.1c3.6,0,6.8-1.2,9.5-3.7c2.7-2.5,4-5.5,4-9.2c0-3.3-1-6-3.1-8.1C1170.8,109.1,1167.8,108,1164,108z"/>
	<rect x="1153.6" y="146.7" class="st2" width="19.8" height="86.2"/>
	<path class="st2" d="M1247.2,145.3c-3.8,0.1-7.5,0.7-11.2,1.9c-3.7,1.1-7.2,2.5-10.3,4.1s-5.8,3.2-7.9,4.7l-0.2-9.3h-17.8v86.2
		h19.7v-64c2.1-1.6,4.2-2.9,6.6-4c2.3-1.1,4.6-1.9,6.8-2.5c2.2-0.6,4.2-0.9,5.9-0.9c6-0.3,9.9,1,11.8,4c1.9,3,2.8,8,2.8,15.1v52.2
		h19.9v-54c0-12.6-2.1-21.4-6.2-26.5C1263,147.4,1256.4,145.1,1247.2,145.3z"/>
	<path class="st2" d="M1378.5,146.1h-9.2c-4.1,0-7.9,0.8-11.2,2.4c-1.8,0.9-3.3,1.8-4.5,2.6c-1.7-1.1-3.5-2-5.5-2.7
		c-5.4-2.1-11.5-3.1-18.3-2.9c-6.8,0.1-12.9,1.2-18.2,3.4c-5.3,2.1-9.4,5.4-12.5,9.8c-3,4.4-4.5,9.9-4.5,16.5c0,5.7,1.5,10.7,4.5,15
		c2.7,3.9,6.4,7,11,9.3c-2.5,1.4-4.6,2.9-6.4,4.7c-2,2-3.4,4-4.4,6.1c-1,2.1-1.5,4.2-1.6,6.2c0,2.8,0.7,5.4,2.2,7.9
		c1.1,1.8,2.8,3.3,5.2,4.6c-1.6,0.8-3.3,1.7-4.8,2.9c-2.4,1.7-4.3,3.8-5.8,6.3c-1.5,2.5-2.3,5.3-2.3,8.5c0,8.5,3.3,14.8,10,19.1
		c6.6,4.2,16,6.4,28.1,6.5c5.8,0,11.4-0.7,16.6-1.9c5.2-1.3,9.9-3.2,13.9-5.7c4.1-2.5,7.2-5.6,9.5-9.3c2.3-3.7,3.4-7.9,3.4-12.6
		c0-3-0.5-5.9-1.4-8.8c-0.9-2.9-2.5-5.4-4.9-7.8c-2.4-2.3-5.7-4.1-9.9-5.5c-4.2-1.4-9.7-2.1-16.3-2.1H1326c-3.7,0-6.3-0.5-7.8-1.6
		c-1.5-1.1-2.3-3.1-2.3-6c0-1.9,0.7-3.7,2.1-5.5c0.8-1,1.7-1.8,2.7-2.5c2.8,0.5,5.8,0.8,9,0.8c7.2,0,13.6-1.1,19-3.4
		c5.4-2.2,9.6-5.6,12.6-9.9c3-4.4,4.5-9.7,4.5-16c0-5-0.9-9.4-2.8-13.1h15.4V146.1z M1334.9,232.8c5.6,0,9.8,0.6,12.7,1.7
		s4.9,2.7,5.9,4.7c1.1,2,1.6,4.5,1.6,7.4c0,3-1.1,5.4-3.3,7.3c-2.2,1.9-5.1,3.3-8.7,4.3c-3.6,1-7.6,1.4-11.9,1.4
		c-4.8,0-8.6-0.7-11.5-2c-2.8-1.4-4.9-3.2-6.2-5.6c-1.3-2.4-1.9-5.2-1.9-8.5c0-2.9,0.5-5.2,1.4-7c0.9-1.7,2-3,3.2-4.1
		c0.4,0,0.7,0.1,1.1,0.1c2,0.2,4.3,0.3,7,0.3H1334.9z M1342.2,187.9c-3,2.3-7.1,3.5-12.1,3.5c-5.7,0-9.8-1.7-12.3-5
		c-2.5-3.4-3.8-7.3-3.8-11.9c0-4.4,0.8-7.8,2.2-10.1c1.5-2.4,3.5-4,6.1-4.9c2.6-0.9,5.4-1.4,8.5-1.4c5.4,0,9.4,1.4,12,4.3
		c2.6,2.8,3.9,7,3.9,12.5C1346.8,181.2,1345.2,185.6,1342.2,187.9z"/>
</g>
</svg>
