<?xml version="1.0" encoding="utf-8"?>
<!-- Generator: $$$/GeneralStr/196=Adobe Illustrator 27.6.0, SVG Export Plug-In . SVG Version: 6.00 Build 0)  -->
<svg version="1.1" id="Calque_1" xmlns="http://www.w3.org/2000/svg" xmlns:xlink="http://www.w3.org/1999/xlink" x="0px" y="0px"
	 viewBox="0 0 1378 380" style="enable-background:new 0 0 1378 380;" xml:space="preserve">
<style type="text/css">
	.st0{fill:#084D49;}
	.st1{fill:#FAD6C4;}
	.st2{fill:#383732;}
	.st3{fill:#383631;}
</style>
<g>
	<circle class="st0" cx="189.98" cy="190.17" r="189.83"/>
	<g>
		<path class="st1" d="M192.38,195.84c-0.03-0.02-0.05-0.04-0.08-0.06l0-0.01c0,0-0.01,0-0.01-0.01c-0.18-0.14-0.39-0.3-0.61-0.47
			c-10.16-7.8-61.8-45.8-102.55-45.04c-4.73-0.05-9.3,0.63-13.6,1.93c-6.81,1.93-13.06,5.39-18.45,10.81l0,0
			c-8.32,8.01-13.62,19.17-13.95,31.62c-0.38,14.56,6.11,27.71,16.52,36.33c15.02,12.74,38.9,13.23,43.91,13.19
			c0.01,0,0.03,0,0.04,0c0.57-3.65,1.46-7.19,2.62-10.6l0.05,0.12c-0.05,0.11-0.07,0.17-0.07,0.17l5.11,11.24l0,0h0l30.31,66.68
			c5.25,2.22,10.85,3.74,16.71,4.47l-27.76-61.32l0.09,0.05l-16.61-36.96c2.82-4.1,6.11-7.84,9.79-11.17l0.2,0.44c0,0,0,0,0,0
			l49.56,109.03c4.66-0.54,9.16-1.58,13.46-3.07l-39.03-85.87l-0.1-0.22l-12.55-28.62c3.78-2.13,7.81-3.88,12.02-5.2l51.51,114.35
			c3.98-2.4,7.68-5.22,11.03-8.41l-49.36-108.59c1.96-0.18,3.95-0.28,5.96-0.28c2.77,0,5.5,0.18,8.17,0.52l34.75,75.02l10.31,21.34
			c3.15-4.96,5.63-10.39,7.31-16.16l-34.77-75.28C192.34,195.83,192.36,195.83,192.38,195.84z"/>
		<path class="st1" d="M65.28,149.73c5.85-4.91,12.39-7.8,19.34-9.11c4.41-0.91,9.02-1.17,13.72-0.7
			c35.77,2.55,77.23,35.74,93.1,49.6h0l0,0c1.25,1.09,2.34,2.06,3.25,2.88l1.07,0.95l0,0l8.98,7.97l0,0
			c2.12,1.83,4.24,3.61,5.88,4.9l-7.8-9.94c-0.75-0.98-1.65-2.13-2.68-3.42l0,0v0c-13.13-16.47-47.99-56.55-82.72-65.46
			c-4.54-1.31-9.13-1.87-13.63-1.77c-7.08,0.04-14.03,1.72-20.66,5.5l0,0c-8.01,4.34-14.72,11.06-18.99,19.55
			C64.52,150.36,64.89,150.04,65.28,149.73L65.28,149.73z"/>
		<path class="st1" d="M291.09,136.97c-1.63-0.38-3.25-0.69-4.88-0.94l0.82-38.71c0.44-5.51,0.9-15.02-0.58-19.65
			c-0.29-1.23-0.71-2.46-1.29-3.65c-4.25-8.75-14.85-12.44-23.68-8.24c-8.83,4.2-12.55,14.7-8.31,23.46
			c4.25,8.75,14.85,12.44,23.68,8.24c1.35-0.64,2.58-1.43,3.68-2.34l-0.4,5.45v0l-0.12,1.58l0,0l-2.32,33.16
			c-8.71-0.11-17.18,1.62-24.92,4.91l-21.7-32.52c-2.79-4.76-7.86-12.83-11.72-15.78c-0.94-0.85-1.99-1.61-3.15-2.25
			c-8.49-4.75-19.3-1.71-24.14,6.79c-4.84,8.5-1.88,19.24,6.61,23.99c8.49,4.75,19.3,1.71,24.14-6.79c0.74-1.3,1.29-2.65,1.68-4.03
			l2.79,4.69l0,0l0.81,1.36l0,0l17.02,28.44c-13.57,8.15-23.96,21.47-27.89,37.98c-7.8,32.68,12.62,65.44,45.61,73.18
			c32.99,7.74,66.05-12.47,73.84-45.15C344.49,177.48,324.07,144.71,291.09,136.97z M308.89,182.75
			c-4.92,8.39-15.78,11.24-24.26,6.36c-8.48-4.88-11.36-15.64-6.43-24.04c4.92-8.39,15.78-11.24,24.26-6.36
			S313.81,174.35,308.89,182.75z"/>
		<path class="st1" d="M113.15,279.4c0,0-5.04-8.91-5.66-20.14l-10.52,28.25l28.47,8.71C117.04,288.89,113.15,279.4,113.15,279.4z"
			/>
	</g>
</g>
<g>
	<g>
		<path class="st2" d="M457.48,182.69V67.34l9.61,0.15c2.53,0,5.13-0.09,7.79-0.26c2.66-0.19,5.51-0.37,8.57-0.54
			c3.05-0.19,6.49-0.28,10.31-0.28c9.2,0,16.72,1.15,22.56,3.44c5.84,2.31,10.14,5.54,12.91,9.69c2.76,4.16,4.14,9.06,4.14,14.7
			c0,3.72-0.61,7.42-1.82,11.08c-1.21,3.67-3.11,6.89-5.7,9.65c-2.58,2.76-5.89,4.69-9.92,5.78c4.66,0.32,8.83,1.74,12.52,4.3
			c3.7,2.56,6.64,5.83,8.84,9.8c2.2,3.99,3.29,8.35,3.29,13.1c0,7.04-1.41,13.23-4.23,18.61c-2.81,5.37-7.62,9.59-14.41,12.64
			c-6.8,3.04-16.22,4.57-28.26,4.57c-4.66,0-9.46-0.14-14.42-0.43c-4.96-0.28-8.86-0.5-11.7-0.66H457.48z M477.49,116.26
			c1.24,0.2,2.64,0.34,4.22,0.42c1.58,0.09,3.2,0.11,4.88,0.09c1.68-0.03,3.3-0.05,4.84-0.05c1.55,0,2.95,0,4.19,0
			c5.43,0,9.83-1.61,13.22-4.84c3.39-3.22,5.08-8.25,5.08-15.08c0-5.68-2.01-9.83-6.01-12.44c-4.01-2.6-9.73-3.91-17.17-3.91
			c-0.88,0-2.26,0.04-4.15,0.11c-1.89,0.08-3.7,0.2-5.46,0.35c-1.75,0.15-2.97,0.37-3.64,0.62V116.26z M477.49,167.87
			c0.83,0.47,2.28,0.83,4.38,1.1c2.09,0.25,4.33,0.43,6.71,0.54c2.37,0.1,4.47,0.15,6.28,0.15c7.96,0,14.16-1.49,18.6-4.45
			c4.45-2.98,6.67-8.21,6.67-15.71c0-6.56-2.02-11.38-6.04-14.45c-4.03-3.08-10.34-4.62-18.92-4.62c-1.34,0-2.84-0.01-4.49-0.04
			c-1.66-0.03-3.31-0.01-4.96,0.04c-1.65,0.05-3.19,0.1-4.61,0.15c-1.42,0.05-2.62,0.16-3.6,0.32V167.87z"/>
		<path class="st2" d="M594.15,183.92c-12.72,0-22.5-3.94-29.34-11.82c-6.85-7.87-10.28-18.8-10.28-32.74
			c0-8.38,1.54-15.87,4.61-22.48c3.08-6.62,7.57-11.85,13.49-15.7c5.92-3.86,13.18-5.83,21.82-5.93c4.39-0.11,8.54,0.49,12.44,1.78
			c3.9,1.29,7.36,3.29,10.38,6.01c3.03,2.71,5.44,6.18,7.25,10.38c1.81,4.21,2.77,9.22,2.87,15c0,3.2-0.03,6.12-0.08,8.72
			c-0.05,2.61-0.28,4.88-0.7,6.79H565.7l1.55-11.78h41.7c0.25-4.14,0.01-7.97-0.74-11.51c-0.75-3.55-2.28-6.37-4.57-8.49
			c-2.3-2.12-5.67-3.18-10.12-3.18c-3.87,0-7.32,1.07-10.35,3.22c-3.02,2.14-5.35,5.79-6.98,10.93c-1.63,5.15-2.32,12.21-2.06,21.21
			c0.26,6.19,1.5,11.12,3.72,14.76c2.22,3.65,5.17,6.25,8.84,7.8c3.67,1.55,7.8,2.32,12.4,2.32c2.12,0,4.62-0.2,7.52-0.62
			c2.9-0.42,5.66-0.97,8.3-1.67c2.64-0.71,4.65-1.46,6.04-2.3l3.65,11.17c-1.91,1.55-4.52,2.94-7.83,4.15
			c-3.31,1.21-6.94,2.18-10.89,2.9C601.93,183.57,598.02,183.92,594.15,183.92z"/>
		<path class="st2" d="M681.74,183.92c-12.72,0-22.5-3.94-29.34-11.82c-6.85-7.87-10.28-18.8-10.28-32.74
			c0-8.38,1.54-15.87,4.61-22.48c3.08-6.62,7.57-11.85,13.49-15.7c5.92-3.86,13.18-5.83,21.82-5.93c4.39-0.11,8.54,0.49,12.44,1.78
			c3.9,1.29,7.36,3.29,10.38,6.01c3.03,2.71,5.44,6.18,7.25,10.38c1.81,4.21,2.77,9.22,2.87,15c0,3.2-0.03,6.12-0.08,8.72
			c-0.05,2.61-0.28,4.88-0.7,6.79h-60.93l1.55-11.78h41.7c0.25-4.14,0.01-7.97-0.74-11.51c-0.75-3.55-2.28-6.37-4.57-8.49
			c-2.3-2.12-5.67-3.18-10.12-3.18c-3.87,0-7.32,1.07-10.35,3.22c-3.02,2.14-5.35,5.79-6.98,10.93c-1.63,5.15-2.32,12.21-2.06,21.21
			c0.26,6.19,1.5,11.12,3.72,14.76c2.22,3.65,5.17,6.25,8.84,7.8c3.67,1.55,7.8,2.32,12.4,2.32c2.12,0,4.62-0.2,7.52-0.62
			s5.66-0.97,8.3-1.67c2.64-0.71,4.65-1.46,6.04-2.3l3.65,11.17c-1.91,1.55-4.52,2.94-7.83,4.15c-3.31,1.21-6.94,2.18-10.89,2.9
			C689.53,183.57,685.61,183.92,681.74,183.92z"/>
		<path class="st2" d="M735.77,182.69V67.49h20.07v99.07h44.11v16.12H735.77z"/>
		<path class="st2" d="M848.17,183.92c-12.72,0-22.5-3.94-29.34-11.82c-6.85-7.87-10.28-18.8-10.28-32.74
			c0-8.38,1.54-15.87,4.61-22.48c3.08-6.62,7.57-11.85,13.49-15.7c5.92-3.86,13.18-5.83,21.82-5.93c4.39-0.11,8.54,0.49,12.44,1.78
			c3.9,1.29,7.36,3.29,10.38,6.01c3.03,2.71,5.44,6.18,7.25,10.38c1.81,4.21,2.77,9.22,2.87,15c0,3.2-0.03,6.12-0.08,8.72
			c-0.05,2.61-0.28,4.88-0.7,6.79h-60.93l1.55-11.78h41.7c0.25-4.14,0.01-7.97-0.74-11.51c-0.75-3.55-2.28-6.37-4.57-8.49
			c-2.3-2.12-5.67-3.18-10.12-3.18c-3.87,0-7.32,1.07-10.35,3.22c-3.02,2.14-5.35,5.79-6.98,10.93c-1.63,5.15-2.32,12.21-2.06,21.21
			c0.26,6.19,1.5,11.12,3.72,14.76c2.22,3.65,5.17,6.25,8.84,7.8c3.67,1.55,7.8,2.32,12.4,2.32c2.12,0,4.62-0.2,7.52-0.62
			s5.66-0.97,8.3-1.67c2.64-0.71,4.65-1.46,6.04-2.3l3.65,11.17c-1.91,1.55-4.52,2.94-7.83,4.15c-3.31,1.21-6.94,2.18-10.89,2.9
			C855.95,183.57,852.04,183.92,848.17,183.92z"/>
		<path class="st2" d="M922.73,183.92c-5.27,0-9.94-1.05-13.99-3.14c-4.06-2.08-7.24-5.05-9.53-8.87c-2.3-3.82-3.45-8.31-3.45-13.49
			c0-5.48,1.47-10.13,4.42-13.95c2.95-3.82,6.9-6.8,11.86-8.92c3.36-1.39,6.99-2.47,10.89-3.26c3.9-0.77,7.82-1.32,11.74-1.67
			c3.93-0.33,7.57-0.5,10.93-0.5l3.8,4.81l-3.8,6.67c-1.96,0-4.28,0.14-6.94,0.42c-2.66,0.29-5.25,0.72-7.79,1.29
			c-2.53,0.57-4.67,1.26-6.43,2.09c-2.43,1.09-4.49,2.5-6.2,4.26c-1.7,1.75-2.55,4.26-2.55,7.52c0,4.29,1.19,7.51,3.56,9.65
			c2.38,2.14,5.77,3.22,10.16,3.22c2.27,0,4.55-0.33,6.82-0.97c2.28-0.64,4.26-1.4,5.97-2.25c1.71-0.86,2.85-1.61,3.41-2.3
			l3.72,4.19l-2.64,6.66c-2.27,2.07-5.51,4.01-9.73,5.82C932.75,183.03,928.01,183.92,922.73,183.92z M965.45,182.69h-18.76v-12.87
			h-1.09V122.6c0-4.86-1.28-8.06-3.84-9.6c-2.56-1.55-6.19-2.33-10.89-2.33c-3.26,0-6.62,0.32-10.11,0.93
			c-3.49,0.62-6.72,1.41-9.69,2.36c-2.97,0.96-5.34,1.96-7.1,2.99l-4.49-13.56c1.39-0.83,3.84-1.91,7.32-3.22
			c3.49-1.32,7.54-2.51,12.17-3.57c4.62-1.06,9.21-1.59,13.76-1.59c6.98,0,12.89,0.81,17.75,2.41c4.86,1.6,8.57,4.49,11.13,8.68
			c2.55,4.19,3.84,10.16,3.84,17.9V182.69z"/>
		<path class="st2" d="M988.7,182.69v-86.2h16.98l1.24,11.78l1.55,5.73v68.69H988.7z M1007.38,121.68l-1.09-13.41
			c0.83-1.92,2.49-3.89,4.96-5.93s5.41-3.76,8.79-5.16c3.39-1.39,6.89-2.09,10.5-2.09c1.81,0,3.41,0.08,4.81,0.24
			c1.39,0.15,2.43,0.44,3.1,0.85v18.84c-0.78-0.47-1.94-0.92-3.49-1.39s-4.01-0.71-7.37-0.71c-3.36,0-6.34,0.48-8.95,1.44
			c-2.61,0.96-4.86,2.12-6.74,3.49C1010.03,119.21,1008.52,120.49,1007.38,121.68z"/>
		<path class="st2" d="M1054.43,182.69v-86.2h17.83l0.16,9.3c2.06-1.5,4.69-3.07,7.87-4.69c3.18-1.63,6.63-3,10.35-4.14
			c3.72-1.14,7.46-1.75,11.24-1.87c9.15-0.25,15.78,2.13,19.88,7.18c4.11,5.03,6.16,13.85,6.16,26.47v53.95H1108v-52.25
			c0-7.08-0.94-12.12-2.83-15.11c-1.89-3-5.83-4.34-11.82-4.04c-1.71,0.06-3.67,0.37-5.89,0.93c-2.23,0.57-4.49,1.39-6.78,2.45
			c-2.3,1.06-4.49,2.38-6.55,3.99v64.03H1054.43z"/>
		<path class="st2" d="M1162.41,82.07c-3.26,0-6.07-1.03-8.45-3.1c-2.38-2.06-3.57-4.83-3.57-8.29c0-2.37,0.66-4.54,1.98-6.47
			c1.32-1.94,3.01-3.49,5.08-4.66c2.06-1.16,4.23-1.74,6.51-1.74c3.87,0,6.83,1.09,8.88,3.26c2.04,2.17,3.06,4.88,3.06,8.14
			c0,3.67-1.34,6.74-4.03,9.19C1169.18,80.84,1166.03,82.07,1162.41,82.07z M1153.58,182.69v-86.2h19.77v86.2H1153.58z"/>
		<path class="st2" d="M1199.78,182.69v-86.2h17.83l0.16,9.3c2.06-1.5,4.69-3.07,7.87-4.69s6.63-3,10.35-4.14
			c3.72-1.14,7.46-1.75,11.24-1.87c9.15-0.25,15.78,2.13,19.88,7.18c4.11,5.03,6.16,13.85,6.16,26.47v53.95h-19.92v-52.25
			c0-7.08-0.94-12.12-2.83-15.11c-1.89-3-5.83-4.34-11.82-4.04c-1.71,0.06-3.67,0.37-5.89,0.93c-2.23,0.57-4.49,1.39-6.78,2.45
			c-2.3,1.06-4.49,2.38-6.55,3.99v64.03H1199.78z"/>
		<path class="st2" d="M1330.47,221.76c-12.09-0.06-21.46-2.22-28.1-6.47c-6.64-4.26-9.96-10.64-9.96-19.11
			c0-3.15,0.76-5.97,2.28-8.45c1.53-2.47,3.46-4.58,5.82-6.31c2.35-1.74,4.79-3.04,7.32-3.92l12.09,1.55
			c-0.98,0.88-2.12,1.87-3.41,2.95c-1.29,1.09-2.42,2.5-3.37,4.26c-0.96,1.75-1.43,4.08-1.43,6.98c0,3.26,0.63,6.08,1.9,8.48
			c1.26,2.41,3.32,4.28,6.16,5.63c2.84,1.34,6.66,2.02,11.47,2.02c4.34,0,8.32-0.48,11.94-1.44c3.61-0.96,6.51-2.4,8.68-4.3
			c2.17-1.92,3.26-4.34,3.26-7.29c0-2.89-0.53-5.36-1.59-7.39c-1.06-2.04-3.03-3.62-5.93-4.73s-7.13-1.67-12.71-1.67h-10.47
			c-2.64,0-4.96-0.09-6.98-0.28c-2.02-0.18-3.85-0.48-5.51-0.88c-0.77-0.21-1.41-0.48-1.9-0.82s-1.12-0.61-1.9-0.81
			c-3.87-1.4-6.54-3.33-7.98-5.78c-1.45-2.46-2.17-5.08-2.17-7.87c0.05-2.02,0.57-4.08,1.55-6.19c0.98-2.12,2.45-4.16,4.42-6.13
			c1.96-1.96,4.37-3.7,7.21-5.19l11.86,2.64c-1.91,0.77-3.58,2.02-5,3.76c-1.42,1.73-2.13,3.55-2.13,5.46
			c0,2.94,0.78,4.95,2.33,6.01c1.55,1.06,4.16,1.59,7.83,1.59h15.51c6.66,0,12.11,0.68,16.35,2.06c4.24,1.36,7.53,3.2,9.89,5.5
			s3.98,4.88,4.88,7.75c0.9,2.88,1.36,5.8,1.36,8.81c0,4.69-1.15,8.89-3.45,12.59c-2.3,3.7-5.48,6.81-9.53,9.34
			c-4.06,2.54-8.71,4.45-13.95,5.74C1341.86,221.1,1336.31,221.76,1330.47,221.76z M1329.69,153.3c-6.66,0-12.65-1.17-17.94-3.52
			c-5.3-2.35-9.46-5.68-12.48-9.97c-3.02-4.29-4.53-9.27-4.53-14.95c0-6.62,1.51-12.11,4.53-16.48c3.03-4.37,7.19-7.62,12.48-9.77
			c5.29-2.14,11.36-3.27,18.17-3.37c6.77-0.11,12.86,0.87,18.26,2.94c5.4,2.07,9.69,5.24,12.87,9.5c3.18,4.26,4.77,9.7,4.77,16.31
			c0,6.31-1.5,11.65-4.5,16.01s-7.21,7.67-12.64,9.92C1343.26,152.18,1336.93,153.3,1329.69,153.3z M1330.08,141.14
			c5.07,0,9.11-1.15,12.13-3.46c3.02-2.3,4.54-6.67,4.54-13.13c0-5.48-1.31-9.64-3.92-12.48c-2.61-2.84-6.6-4.26-11.97-4.26
			c-3.1,0-5.93,0.45-8.49,1.35c-2.55,0.91-4.59,2.55-6.08,4.93c-1.5,2.37-2.25,5.75-2.25,10.14c0,4.55,1.26,8.5,3.76,11.86
			C1320.3,139.46,1324.4,141.14,1330.08,141.14z M1356.05,110.91l-4.49-8.06c1.09-1.4,3.28-2.91,6.59-4.54
			c3.31-1.63,7.03-2.44,11.17-2.44h9.15v15.04H1356.05z"/>
	</g>
	<g>
		<path class="st3" d="M457.48,305.15v-50.26h3.72c2.12,0,4.22-0.09,6.31-0.27c2.09-0.18,4.28-0.27,6.58-0.27
			c3.72,0,6.92,0.57,9.61,1.71c2.68,1.14,4.75,2.94,6.21,5.39c1.45,2.46,2.18,5.67,2.18,9.64c0,5.57-1.67,9.9-5.02,12.99
			c-3.35,3.09-8.21,4.64-14.6,4.64c-1.51,0-2.76-0.01-3.74-0.03c-0.98-0.02-1.78-0.03-2.39-0.03v16.5H457.48z M466.34,281.94
			c0.97,0.12,1.94,0.19,2.91,0.24s1.92,0.07,2.84,0.07c2.01,0,3.87-0.3,5.58-0.9c1.71-0.6,3.09-1.71,4.13-3.31
			c1.04-1.61,1.56-3.94,1.56-6.99c0-3.63-0.96-6.31-2.89-8.03c-1.93-1.73-4.75-2.53-8.47-2.42c-0.92,0.02-1.88,0.08-2.87,0.17
			c-0.99,0.09-1.92,0.23-2.77,0.41V281.94z"/>
		<path class="st3" d="M513.53,305.69c-5.55,0-9.82-1.72-12.8-5.16c-2.99-3.44-4.48-8.2-4.48-14.29c0-3.66,0.67-6.93,2.01-9.81
			c1.34-2.89,3.3-5.17,5.89-6.85c2.58-1.68,5.75-2.54,9.52-2.59c1.92-0.05,3.72,0.21,5.43,0.78c1.7,0.56,3.21,1.44,4.53,2.62
			c1.32,1.18,2.38,2.7,3.16,4.53c0.79,1.84,1.21,4.02,1.25,6.55c0,1.4-0.01,2.67-0.03,3.8c-0.02,1.14-0.12,2.13-0.31,2.96h-26.58
			l0.68-5.14h18.2c0.11-1.81,0-3.48-0.32-5.02c-0.33-1.55-0.99-2.78-2-3.7c-1-0.92-2.47-1.39-4.41-1.39c-1.69,0-3.2,0.47-4.51,1.4
			c-1.32,0.94-2.33,2.53-3.04,4.77c-0.71,2.25-1.01,5.33-0.9,9.25c0.11,2.7,0.66,4.85,1.62,6.44s2.25,2.72,3.86,3.4
			c1.6,0.68,3.4,1.01,5.41,1.01c0.92,0,2.02-0.09,3.28-0.27c1.26-0.18,2.47-0.42,3.62-0.73c1.15-0.31,2.03-0.64,2.64-1l1.59,4.87
			c-0.83,0.68-1.97,1.28-3.42,1.81c-1.45,0.53-3.03,0.95-4.75,1.27C516.93,305.53,515.22,305.69,513.53,305.69z M511.47,262.49
			l-3.92-3.38c1.22-1.28,2.49-2.7,3.8-4.24c1.32-1.55,2.61-3.14,3.87-4.81c1.26-1.66,2.41-3.28,3.45-4.88l5.65,4.56
			c-0.36,0.7-0.95,1.55-1.78,2.54s-1.75,2.03-2.79,3.11c-1.04,1.08-2.1,2.12-3.18,3.13c-1.08,1.01-2.07,1.86-2.98,2.57
			C512.69,261.8,511.98,262.27,511.47,262.49z"/>
		<path class="st3" d="M549.21,305.69c-2.66,0-5.12-0.65-7.37-1.96s-4.08-3.29-5.46-5.95c-1.39-2.66-2.08-6.03-2.08-10.11
			c0-4.13,0.79-7.74,2.37-10.84c1.58-3.1,3.79-5.51,6.63-7.23c2.84-1.73,6.17-2.59,9.98-2.59c2.32,0,4.26,0.26,5.82,0.79
			c1.56,0.53,2.55,0.99,2.98,1.37l-2.67,5.48c-0.63-0.54-1.49-0.92-2.59-1.13c-1.1-0.21-2.38-0.32-3.84-0.32
			c-1.81,0-3.44,0.51-4.9,1.52c-1.46,1.02-2.63,2.54-3.5,4.57c-0.87,2.03-1.31,4.54-1.33,7.54c-0.05,4.24,0.69,7.32,2.2,9.25
			c1.51,1.93,3.62,2.9,6.33,2.9c1.64,0,3.14-0.3,4.5-0.9c1.35-0.6,2.4-1.19,3.15-1.78l1.29,4.3c-0.54,0.56-1.27,1.24-2.2,2.04
			c-0.92,0.8-2.14,1.51-3.64,2.13C553.34,305.38,551.46,305.69,549.21,305.69z M559.9,305.15v-4.9l-0.51-0.3v-26.28l0.27-0.2
			l-0.27-8.15v-15.15h8.59v54.99H559.9z"/>
		<path class="st3" d="M588.24,305.69c-2.3,0-4.34-0.46-6.11-1.37c-1.77-0.91-3.16-2.2-4.16-3.87c-1-1.67-1.51-3.63-1.51-5.88
			c0-2.39,0.64-4.42,1.93-6.09c1.29-1.67,3.01-2.97,5.17-3.89c1.47-0.61,3.05-1.08,4.75-1.42c1.7-0.34,3.41-0.58,5.12-0.73
			c1.71-0.14,3.3-0.22,4.77-0.22l1.66,2.1l-1.66,2.91c-0.86,0-1.87,0.06-3.03,0.18c-1.16,0.13-2.29,0.31-3.4,0.56
			c-1.1,0.25-2.04,0.55-2.81,0.91c-1.06,0.47-1.96,1.09-2.71,1.86c-0.74,0.77-1.11,1.86-1.11,3.28c0,1.87,0.52,3.28,1.56,4.21
			c1.04,0.94,2.52,1.4,4.43,1.4c0.99,0,1.98-0.14,2.98-0.42c0.99-0.28,1.86-0.61,2.6-0.98c0.75-0.37,1.24-0.7,1.49-1l1.62,1.83
			l-1.15,2.91c-0.99,0.9-2.41,1.75-4.24,2.54C592.61,305.29,590.54,305.69,588.24,305.69z M606.88,305.15h-8.19v-5.62h-0.47v-20.6
			c0-2.12-0.56-3.52-1.67-4.19c-1.12-0.68-2.7-1.02-4.75-1.02c-1.42,0-2.89,0.14-4.41,0.41c-1.52,0.27-2.93,0.62-4.23,1.03
			c-1.3,0.42-2.33,0.85-3.1,1.3l-1.96-5.92c0.61-0.36,1.67-0.83,3.2-1.4c1.52-0.58,3.29-1.1,5.31-1.56c2.02-0.46,4.02-0.69,6-0.69
			c3.04,0,5.63,0.35,7.75,1.05c2.12,0.7,3.74,1.96,4.86,3.79c1.11,1.83,1.67,4.43,1.67,7.81V305.15z"/>
		<path class="st3" d="M630.96,322.19c-5.28-0.03-9.36-0.97-12.26-2.82c-2.9-1.86-4.35-4.64-4.35-8.34c0-1.38,0.33-2.6,1-3.69
			c0.67-1.08,1.51-2,2.54-2.75c1.03-0.76,2.09-1.33,3.2-1.71l5.28,0.68c-0.43,0.39-0.92,0.81-1.49,1.29
			c-0.56,0.47-1.05,1.09-1.47,1.86c-0.42,0.77-0.62,1.78-0.62,3.04c0,1.42,0.28,2.65,0.83,3.7c0.55,1.05,1.45,1.87,2.69,2.46
			c1.24,0.58,2.91,0.88,5,0.88c1.89,0,3.63-0.21,5.21-0.63c1.58-0.42,2.84-1.05,3.79-1.88c0.95-0.84,1.42-1.89,1.42-3.18
			c0-1.26-0.23-2.34-0.69-3.23c-0.46-0.89-1.32-1.58-2.59-2.06s-3.11-0.73-5.55-0.73h-4.57c-1.15,0-2.17-0.04-3.04-0.12
			c-0.88-0.08-1.68-0.21-2.4-0.39c-0.34-0.09-0.61-0.21-0.83-0.36c-0.21-0.15-0.49-0.26-0.83-0.35c-1.69-0.61-2.85-1.45-3.48-2.52
			c-0.63-1.07-0.95-2.22-0.95-3.44c0.02-0.88,0.25-1.78,0.67-2.7c0.43-0.92,1.07-1.82,1.93-2.68c0.86-0.85,1.9-1.61,3.15-2.26
			l5.17,1.15c-0.83,0.34-1.56,0.88-2.18,1.64c-0.62,0.75-0.93,1.55-0.93,2.38c0,1.28,0.34,2.16,1.02,2.62
			c0.68,0.46,1.81,0.69,3.42,0.69h6.77c2.91,0,5.28,0.3,7.13,0.9c1.85,0.59,3.29,1.4,4.31,2.4c1.03,1,1.74,2.13,2.13,3.38
			c0.39,1.26,0.59,2.53,0.59,3.84c0,2.05-0.5,3.88-1.51,5.49c-1,1.61-2.39,2.97-4.16,4.07c-1.77,1.11-3.8,1.94-6.09,2.5
			C635.92,321.91,633.51,322.19,630.96,322.19z M630.62,292.33c-2.91,0-5.52-0.51-7.83-1.54c-2.31-1.02-4.13-2.48-5.45-4.35
			c-1.32-1.87-1.98-4.05-1.98-6.52c0-2.89,0.66-5.28,1.98-7.19c1.32-1.9,3.14-3.33,5.45-4.26c2.31-0.94,4.95-1.43,7.93-1.47
			c2.95-0.05,5.61,0.38,7.97,1.28c2.36,0.9,4.23,2.28,5.62,4.15c1.39,1.86,2.08,4.23,2.08,7.12c0,2.75-0.66,5.08-1.96,6.99
			c-1.31,1.9-3.15,3.35-5.51,4.33C636.54,291.84,633.77,292.33,630.62,292.33z M630.79,287.02c2.21,0,3.97-0.5,5.29-1.51
			c1.32-1,1.98-2.91,1.98-5.73c0-2.39-0.57-4.21-1.71-5.44c-1.14-1.24-2.88-1.86-5.22-1.86c-1.35,0-2.59,0.2-3.7,0.59
			c-1.11,0.4-2,1.11-2.65,2.15c-0.66,1.03-0.98,2.51-0.98,4.43c0,1.99,0.55,3.71,1.64,5.17
			C626.52,286.29,628.31,287.02,630.79,287.02z M642.12,273.83l-1.96-3.52c0.47-0.61,1.43-1.27,2.87-1.98
			c1.44-0.71,3.07-1.06,4.87-1.06h3.99v6.56H642.12z"/>
		<path class="st3" d="M672.16,305.69c-3.14,0-5.8-0.54-8-1.62c-2.2-1.08-3.97-2.55-5.33-4.43c-1.35-1.87-2.33-4.02-2.94-6.45
			c-0.61-2.42-0.9-4.98-0.88-7.66c0.07-4.04,0.88-7.43,2.44-10.18c1.56-2.75,3.67-4.83,6.34-6.24c2.67-1.41,5.69-2.11,9.05-2.11
			c4.22,0,7.59,0.93,10.11,2.79c2.52,1.86,4.34,4.32,5.44,7.38c1.11,3.06,1.63,6.36,1.59,9.93c-0.07,4.04-0.88,7.44-2.42,10.2
			c-1.54,2.76-3.65,4.85-6.31,6.27C678.59,304.98,675.56,305.69,672.16,305.69z M672.39,299.6c2.95,0.05,5.15-1.06,6.59-3.33
			c1.44-2.26,2.17-5.44,2.17-9.52c0-2.5-0.29-4.78-0.88-6.83c-0.59-2.05-1.51-3.69-2.76-4.92c-1.25-1.23-2.88-1.86-4.89-1.88
			c-2.95-0.05-5.15,1.02-6.59,3.19c-1.44,2.18-2.16,5.31-2.16,9.39c0,2.5,0.29,4.81,0.88,6.9c0.59,2.1,1.51,3.78,2.76,5.05
			C668.76,298.93,670.39,299.58,672.39,299.6z"/>
		<path class="st3" d="M711.22,322.19c-5.28-0.03-9.36-0.97-12.26-2.82c-2.9-1.86-4.35-4.64-4.35-8.34c0-1.38,0.33-2.6,1-3.69
			c0.67-1.08,1.51-2,2.54-2.75c1.03-0.76,2.09-1.33,3.2-1.71l5.28,0.68c-0.43,0.39-0.92,0.81-1.49,1.29
			c-0.56,0.47-1.05,1.09-1.47,1.86c-0.42,0.77-0.62,1.78-0.62,3.04c0,1.42,0.28,2.65,0.83,3.7c0.55,1.05,1.45,1.87,2.69,2.46
			c1.24,0.58,2.91,0.88,5,0.88c1.89,0,3.63-0.21,5.21-0.63c1.58-0.42,2.84-1.05,3.79-1.88c0.95-0.84,1.42-1.89,1.42-3.18
			c0-1.26-0.23-2.34-0.69-3.23c-0.46-0.89-1.32-1.58-2.59-2.06c-1.26-0.48-3.11-0.73-5.55-0.73h-4.57c-1.15,0-2.17-0.04-3.04-0.12
			c-0.88-0.08-1.68-0.21-2.4-0.39c-0.34-0.09-0.61-0.21-0.83-0.36c-0.21-0.15-0.49-0.26-0.83-0.35c-1.69-0.61-2.85-1.45-3.48-2.52
			c-0.63-1.07-0.95-2.22-0.95-3.44c0.02-0.88,0.25-1.78,0.67-2.7c0.43-0.92,1.07-1.82,1.93-2.68c0.86-0.85,1.9-1.61,3.15-2.26
			l5.17,1.15c-0.83,0.34-1.56,0.88-2.18,1.64c-0.62,0.75-0.93,1.55-0.93,2.38c0,1.28,0.34,2.16,1.02,2.62
			c0.68,0.46,1.81,0.69,3.42,0.69h6.77c2.91,0,5.28,0.3,7.13,0.9c1.85,0.59,3.29,1.4,4.31,2.4c1.03,1,1.74,2.13,2.13,3.38
			c0.39,1.26,0.59,2.53,0.59,3.84c0,2.05-0.5,3.88-1.51,5.49c-1,1.61-2.39,2.97-4.16,4.07c-1.77,1.11-3.8,1.94-6.09,2.5
			C716.19,321.91,713.77,322.19,711.22,322.19z M710.88,292.33c-2.91,0-5.52-0.51-7.83-1.54c-2.31-1.02-4.13-2.48-5.45-4.35
			c-1.32-1.87-1.98-4.05-1.98-6.52c0-2.89,0.66-5.28,1.98-7.19c1.32-1.9,3.14-3.33,5.45-4.26c2.31-0.94,4.95-1.43,7.93-1.47
			c2.95-0.05,5.61,0.38,7.97,1.28c2.36,0.9,4.23,2.28,5.62,4.15c1.39,1.86,2.08,4.23,2.08,7.12c0,2.75-0.66,5.08-1.96,6.99
			c-1.31,1.9-3.15,3.35-5.51,4.33S714.04,292.33,710.88,292.33z M711.05,287.02c2.21,0,3.97-0.5,5.29-1.51
			c1.32-1,1.98-2.91,1.98-5.73c0-2.39-0.57-4.21-1.71-5.44c-1.14-1.24-2.88-1.86-5.22-1.86c-1.35,0-2.59,0.2-3.7,0.59
			c-1.11,0.4-2,1.11-2.65,2.15c-0.66,1.03-0.98,2.51-0.98,4.43c0,1.99,0.55,3.71,1.64,5.17
			C706.78,286.29,708.57,287.02,711.05,287.02z M722.38,273.83l-1.96-3.52c0.47-0.61,1.43-1.27,2.87-1.98
			c1.44-0.71,3.07-1.06,4.87-1.06h3.99v6.56H722.38z"/>
		<path class="st3" d="M742.74,261.24c-1.42,0-2.65-0.45-3.69-1.35c-1.04-0.9-1.56-2.11-1.56-3.62c0-1.03,0.29-1.98,0.86-2.82
			c0.58-0.85,1.31-1.52,2.22-2.03c0.9-0.51,1.85-0.76,2.84-0.76c1.69,0,2.98,0.47,3.87,1.42c0.89,0.95,1.33,2.13,1.33,3.55
			c0,1.6-0.59,2.94-1.76,4.01C745.69,260.71,744.32,261.24,742.74,261.24z M738.88,305.15v-37.61h8.63v37.61H738.88z"/>
		<path class="st3" d="M773.89,305.69c-5.55,0-9.82-1.72-12.8-5.16c-2.99-3.44-4.48-8.2-4.48-14.29c0-3.66,0.67-6.93,2.01-9.81
			c1.34-2.89,3.3-5.17,5.89-6.85c2.58-1.68,5.75-2.54,9.52-2.59c1.92-0.05,3.72,0.21,5.43,0.78c1.7,0.56,3.21,1.44,4.53,2.62
			c1.32,1.18,2.38,2.7,3.16,4.53c0.79,1.84,1.21,4.02,1.25,6.55c0,1.4-0.01,2.67-0.03,3.8c-0.02,1.14-0.12,2.13-0.31,2.96h-26.58
			l0.68-5.14h18.2c0.11-1.81,0-3.48-0.32-5.02c-0.33-1.55-0.99-2.78-2-3.7c-1-0.92-2.47-1.39-4.41-1.39c-1.69,0-3.2,0.47-4.51,1.4
			s-2.33,2.53-3.04,4.77c-0.71,2.25-1.01,5.33-0.9,9.25c0.11,2.7,0.66,4.85,1.62,6.44s2.25,2.72,3.86,3.4
			c1.6,0.68,3.4,1.01,5.41,1.01c0.92,0,2.02-0.09,3.28-0.27s2.47-0.42,3.62-0.73c1.15-0.31,2.03-0.64,2.64-1l1.59,4.87
			c-0.83,0.68-1.97,1.28-3.42,1.81c-1.45,0.53-3.03,0.95-4.75,1.27C777.29,305.53,775.58,305.69,773.89,305.69z"/>
		<path class="st3" d="M824.25,305.69c-5.55,0-9.82-1.72-12.8-5.16c-2.99-3.44-4.48-8.2-4.48-14.29c0-3.66,0.67-6.93,2.01-9.81
			c1.34-2.89,3.3-5.17,5.89-6.85c2.58-1.68,5.75-2.54,9.52-2.59c1.92-0.05,3.72,0.21,5.43,0.78c1.7,0.56,3.21,1.44,4.53,2.62
			c1.32,1.18,2.38,2.7,3.16,4.53c0.79,1.84,1.21,4.02,1.25,6.55c0,1.4-0.01,2.67-0.03,3.8c-0.02,1.14-0.12,2.13-0.31,2.96h-26.58
			l0.68-5.14h18.2c0.11-1.81,0-3.48-0.32-5.02c-0.33-1.55-0.99-2.78-2-3.7c-1-0.92-2.47-1.39-4.41-1.39c-1.69,0-3.2,0.47-4.51,1.4
			s-2.33,2.53-3.04,4.77c-0.71,2.25-1.01,5.33-0.9,9.25c0.11,2.7,0.66,4.85,1.62,6.44s2.25,2.72,3.86,3.4
			c1.6,0.68,3.4,1.01,5.41,1.01c0.92,0,2.02-0.09,3.28-0.27c1.26-0.18,2.47-0.42,3.62-0.73c1.15-0.31,2.03-0.64,2.64-1l1.59,4.87
			c-0.83,0.68-1.97,1.28-3.42,1.81c-1.45,0.53-3.03,0.95-4.75,1.27C827.65,305.53,825.94,305.69,824.25,305.69z"/>
		<path class="st3" d="M858.41,305.69c-1.96,0-3.64-0.31-5.04-0.95c-1.4-0.63-2.47-1.7-3.23-3.19c-0.76-1.5-1.13-3.58-1.13-6.24
			v-21.65h-4.77v-4.64c1.67-0.47,2.96-0.89,3.89-1.25c0.92-0.36,1.6-1.08,2.03-2.16c0.18-0.5,0.39-1.09,0.62-1.78
			c0.24-0.69,0.5-1.45,0.78-2.28c0.28-0.83,0.58-1.72,0.89-2.67h5.17v8.59h10.42v6.19h-10.42v17.45c0,2.42,0.11,4.17,0.34,5.28
			c0.23,1.1,0.64,1.81,1.25,2.11c0.61,0.3,1.49,0.46,2.64,0.46c0.63,0,1.35-0.08,2.15-0.22c0.8-0.15,1.57-0.34,2.3-0.56
			c0.73-0.23,1.3-0.46,1.71-0.71l1.32,4.9c-0.66,0.54-1.57,1.07-2.74,1.57c-1.17,0.51-2.47,0.92-3.89,1.25
			C861.28,305.53,859.85,305.69,858.41,305.69z"/>
		<path class="st3" d="M888.24,305.15v-37.61h7.41l0.54,5.14l0.67,2.5v29.97H888.24z M896.39,278.53l-0.47-5.85
			c0.36-0.84,1.08-1.7,2.17-2.59c1.08-0.89,2.36-1.64,3.84-2.25c1.48-0.61,3.01-0.91,4.58-0.91c0.79,0,1.49,0.03,2.1,0.1
			c0.61,0.07,1.06,0.19,1.35,0.37v8.22c-0.34-0.2-0.84-0.4-1.52-0.61s-1.75-0.31-3.21-0.31c-1.46,0-2.77,0.21-3.91,0.63
			c-1.14,0.42-2.12,0.92-2.94,1.52C897.54,277.45,896.88,278.01,896.39,278.53z"/>
		<path class="st3" d="M931.09,305.69c-5.55,0-9.82-1.72-12.8-5.16c-2.99-3.44-4.48-8.2-4.48-14.29c0-3.66,0.67-6.93,2.01-9.81
			c1.34-2.89,3.3-5.17,5.89-6.85c2.58-1.68,5.75-2.54,9.52-2.59c1.92-0.05,3.72,0.21,5.43,0.78c1.7,0.56,3.21,1.44,4.53,2.62
			c1.32,1.18,2.38,2.7,3.16,4.53c0.79,1.84,1.21,4.02,1.25,6.55c0,1.4-0.01,2.67-0.03,3.8c-0.02,1.14-0.12,2.13-0.31,2.96h-26.58
			l0.68-5.14h18.2c0.11-1.81,0-3.48-0.32-5.02c-0.33-1.55-0.99-2.78-2-3.7c-1-0.92-2.47-1.39-4.41-1.39c-1.69,0-3.2,0.47-4.51,1.4
			s-2.33,2.53-3.04,4.77c-0.71,2.25-1.01,5.33-0.9,9.25c0.11,2.7,0.66,4.85,1.62,6.44s2.25,2.72,3.86,3.4
			c1.6,0.68,3.4,1.01,5.41,1.01c0.92,0,2.02-0.09,3.28-0.27c1.26-0.18,2.47-0.42,3.62-0.73c1.15-0.31,2.03-0.64,2.64-1l1.59,4.87
			c-0.83,0.68-1.97,1.28-3.42,1.81c-1.45,0.53-3.03,0.95-4.75,1.27C934.49,305.53,932.78,305.69,931.09,305.69z"/>
		<path class="st3" d="M952.23,302.85l1.08-6.25c0.36,0.27,1.08,0.62,2.17,1.06s2.38,0.84,3.89,1.2c1.51,0.36,3.07,0.56,4.67,0.58
			c2.12,0.02,3.72-0.32,4.8-1.03c1.08-0.71,1.62-1.71,1.62-2.99c0-0.92-0.33-1.73-1-2.41c-0.67-0.68-1.58-1.3-2.74-1.88
			c-1.16-0.57-2.47-1.18-3.94-1.81c-2.16-0.95-4.03-1.98-5.6-3.08c-1.57-1.11-2.77-2.39-3.6-3.86c-0.84-1.46-1.24-3.21-1.22-5.24
			c0.05-2.28,0.7-4.17,1.98-5.66c1.27-1.5,2.98-2.63,5.11-3.37c2.13-0.74,4.5-1.11,7.12-1.11c2.5,0,4.67,0.25,6.51,0.74
			c1.84,0.5,3.06,0.92,3.67,1.28l-1.12,6.39c-0.43-0.34-1.08-0.68-1.94-1.05c-0.87-0.36-1.87-0.65-2.99-0.86
			c-1.13-0.21-2.27-0.32-3.42-0.32c-2.28,0-3.97,0.31-5.09,0.93c-1.12,0.62-1.69,1.49-1.71,2.62c-0.02,1.51,0.53,2.64,1.64,3.4
			c1.12,0.75,2.52,1.51,4.21,2.28c2.46,1.13,4.62,2.24,6.48,3.33c1.86,1.1,3.31,2.35,4.35,3.75c1.04,1.41,1.56,3.14,1.56,5.2
			c0,3.61-1.25,6.34-3.75,8.2c-2.5,1.86-5.91,2.79-10.21,2.79c-1.81,0-3.55-0.14-5.23-0.42c-1.68-0.29-3.16-0.64-4.45-1.08
			C953.79,303.74,952.84,303.3,952.23,302.85z"/>
		<path class="st3" d="M987.17,321.85v-54.38h7.95v4.6l0.68,0.81v28.81l-0.07,1.93l0.07,6.12v12.11H987.17z M1001.92,305.69
			c-2.32,0-4.24-0.28-5.77-0.84c-1.52-0.57-2.51-1.03-2.96-1.39l2.6-5.52c0.68,0.59,1.54,1.01,2.6,1.26
			c1.06,0.25,2.31,0.37,3.75,0.37c1.85,0,3.51-0.53,4.97-1.59c1.47-1.06,2.63-2.61,3.5-4.65c0.87-2.04,1.31-4.53,1.33-7.46
			c0.05-4.35-0.69-7.49-2.21-9.4s-3.64-2.87-6.34-2.87c-1.65,0-3.13,0.31-4.45,0.93c-1.32,0.62-2.38,1.23-3.16,1.84l-1.22-4.33
			c0.52-0.54,1.24-1.21,2.15-2.01c0.91-0.8,2.11-1.5,3.6-2.11c1.49-0.61,3.36-0.91,5.62-0.91c2.66,0,5.13,0.64,7.41,1.94
			c2.28,1.29,4.1,3.27,5.48,5.92c1.38,2.65,2.06,6.01,2.06,10.06c0,4.12-0.79,7.75-2.37,10.86c-1.58,3.11-3.79,5.54-6.63,7.29
			C1009.05,304.82,1005.73,305.69,1001.92,305.69z"/>
		<path class="st3" d="M1044.02,305.69c-3.14,0-5.8-0.54-8-1.62c-2.2-1.08-3.97-2.55-5.33-4.43c-1.35-1.87-2.33-4.02-2.94-6.45
			c-0.61-2.42-0.9-4.98-0.88-7.66c0.07-4.04,0.88-7.43,2.44-10.18c1.56-2.75,3.67-4.83,6.34-6.24s5.69-2.11,9.05-2.11
			c4.22,0,7.59,0.93,10.11,2.79c2.52,1.86,4.34,4.32,5.44,7.38c1.11,3.06,1.64,6.36,1.59,9.93c-0.07,4.04-0.88,7.44-2.42,10.2
			c-1.54,2.76-3.65,4.85-6.31,6.27C1050.46,304.98,1047.43,305.69,1044.02,305.69z M1044.26,299.6c2.95,0.05,5.15-1.06,6.59-3.33
			c1.44-2.26,2.17-5.44,2.17-9.52c0-2.5-0.29-4.78-0.88-6.83c-0.59-2.05-1.51-3.69-2.76-4.92c-1.25-1.23-2.88-1.86-4.89-1.88
			c-2.95-0.05-5.15,1.02-6.59,3.19c-1.44,2.18-2.16,5.31-2.16,9.39c0,2.5,0.29,4.81,0.88,6.9s1.51,3.78,2.76,5.05
			C1040.62,298.93,1042.25,299.58,1044.26,299.6z"/>
		<path class="st3" d="M1070.44,305.15v-37.61h7.78l0.07,4.06c0.9-0.66,2.05-1.34,3.43-2.05c1.39-0.71,2.89-1.31,4.52-1.81
			c1.62-0.5,3.26-0.77,4.9-0.81c3.99-0.11,6.88,0.93,8.68,3.13c1.79,2.2,2.69,6.04,2.69,11.55v23.54h-8.69v-22.8
			c0-3.09-0.41-5.29-1.23-6.59c-0.83-1.31-2.54-1.89-5.16-1.76c-0.75,0.03-1.6,0.16-2.57,0.41c-0.97,0.25-1.96,0.61-2.96,1.07
			c-1,0.46-1.96,1.04-2.86,1.74v27.94H1070.44z"/>
		<path class="st3" d="M1111.23,302.85l1.08-6.25c0.36,0.27,1.08,0.62,2.17,1.06c1.08,0.44,2.38,0.84,3.89,1.2
			c1.51,0.36,3.07,0.56,4.67,0.58c2.12,0.02,3.72-0.32,4.8-1.03c1.08-0.71,1.62-1.71,1.62-2.99c0-0.92-0.33-1.73-1-2.41
			c-0.67-0.68-1.58-1.3-2.74-1.88c-1.16-0.57-2.47-1.18-3.94-1.81c-2.16-0.95-4.03-1.98-5.6-3.08c-1.57-1.11-2.77-2.39-3.6-3.86
			c-0.84-1.46-1.24-3.21-1.22-5.24c0.05-2.28,0.7-4.17,1.98-5.66c1.27-1.5,2.98-2.63,5.11-3.37c2.13-0.74,4.5-1.11,7.12-1.11
			c2.5,0,4.67,0.25,6.51,0.74c1.84,0.5,3.06,0.92,3.67,1.28l-1.12,6.39c-0.43-0.34-1.08-0.68-1.94-1.05
			c-0.87-0.36-1.87-0.65-2.99-0.86c-1.13-0.21-2.27-0.32-3.42-0.32c-2.28,0-3.97,0.31-5.09,0.93c-1.12,0.62-1.69,1.49-1.71,2.62
			c-0.02,1.51,0.53,2.64,1.64,3.4c1.12,0.75,2.52,1.51,4.21,2.28c2.46,1.13,4.62,2.24,6.48,3.33c1.86,1.1,3.31,2.35,4.35,3.75
			c1.04,1.41,1.56,3.14,1.56,5.2c0,3.61-1.25,6.34-3.75,8.2c-2.5,1.86-5.91,2.79-10.21,2.79c-1.81,0-3.55-0.14-5.23-0.42
			c-1.68-0.29-3.16-0.64-4.45-1.08S1111.84,303.3,1111.23,302.85z"/>
		<path class="st3" d="M1154.18,305.69c-2.3,0-4.34-0.46-6.11-1.37c-1.77-0.91-3.16-2.2-4.16-3.87c-1-1.67-1.51-3.63-1.51-5.88
			c0-2.39,0.64-4.42,1.93-6.09c1.29-1.67,3.01-2.97,5.17-3.89c1.47-0.61,3.05-1.08,4.75-1.42c1.7-0.34,3.41-0.58,5.12-0.73
			c1.71-0.14,3.3-0.22,4.77-0.22l1.66,2.1l-1.66,2.91c-0.86,0-1.87,0.06-3.03,0.18c-1.16,0.13-2.29,0.31-3.4,0.56
			c-1.1,0.25-2.04,0.55-2.81,0.91c-1.06,0.47-1.96,1.09-2.71,1.86c-0.74,0.77-1.11,1.86-1.11,3.28c0,1.87,0.52,3.28,1.56,4.21
			c1.04,0.94,2.52,1.4,4.43,1.4c0.99,0,1.98-0.14,2.98-0.42c0.99-0.28,1.86-0.61,2.6-0.98c0.75-0.37,1.24-0.7,1.49-1l1.62,1.83
			l-1.15,2.91c-0.99,0.9-2.41,1.75-4.24,2.54C1158.55,305.29,1156.48,305.69,1154.18,305.69z M1172.82,305.15h-8.19v-5.62h-0.47
			v-20.6c0-2.12-0.56-3.52-1.67-4.19c-1.12-0.68-2.7-1.02-4.75-1.02c-1.42,0-2.89,0.14-4.41,0.41s-2.93,0.62-4.23,1.03
			c-1.3,0.42-2.33,0.85-3.1,1.3l-1.96-5.92c0.61-0.36,1.67-0.83,3.2-1.4c1.52-0.58,3.29-1.1,5.31-1.56c2.02-0.46,4.02-0.69,6-0.69
			c3.04,0,5.63,0.35,7.75,1.05c2.12,0.7,3.74,1.96,4.86,3.79c1.11,1.83,1.67,4.43,1.67,7.81V305.15z"/>
		<path class="st3" d="M1183.51,250.28h8.59v15.02l-0.27,6.97l0.27,0.2v27.09l-8.59,3.48V250.28z M1197.88,305.76
			c-1.49,0-3.01-0.1-4.57-0.29c-1.56-0.19-3.02-0.43-4.38-0.73c-1.37-0.29-2.53-0.59-3.5-0.9c-0.97-0.3-1.61-0.57-1.93-0.79
			l8.59-4.7c0.56,0.43,1.38,0.75,2.45,0.98c1.07,0.23,2.38,0.34,3.94,0.34c1.85,0,3.51-0.53,4.97-1.59
			c1.47-1.06,2.63-2.62,3.48-4.68c0.86-2.06,1.31-4.59,1.35-7.56c0.02-4.33-0.73-7.45-2.25-9.37c-1.52-1.92-3.62-2.87-6.31-2.87
			c-1.67,0-3.17,0.31-4.5,0.93c-1.33,0.62-2.38,1.22-3.14,1.81l-1.22-4.33c0.52-0.54,1.24-1.21,2.15-2c0.91-0.79,2.12-1.49,3.62-2.1
			c1.5-0.61,3.38-0.91,5.63-0.91c2.66,0,5.12,0.64,7.37,1.94c2.25,1.29,4.07,3.27,5.45,5.92c1.37,2.65,2.06,6.01,2.06,10.06
			c0,4.12-0.8,7.75-2.4,10.87c-1.6,3.13-3.85,5.57-6.73,7.32C1205.14,304.88,1201.76,305.76,1197.88,305.76z"/>
		<path class="st3" d="M1229.94,261.24c-1.42,0-2.65-0.45-3.69-1.35c-1.04-0.9-1.56-2.11-1.56-3.62c0-1.03,0.29-1.98,0.86-2.82
			c0.58-0.85,1.31-1.52,2.22-2.03c0.9-0.51,1.85-0.76,2.84-0.76c1.69,0,2.98,0.47,3.87,1.42c0.89,0.95,1.33,2.13,1.33,3.55
			c0,1.6-0.59,2.94-1.76,4.01C1232.9,260.71,1231.52,261.24,1229.94,261.24z M1226.09,305.15v-37.61h8.63v37.61H1226.09z"/>
		<path class="st3" d="M1246.38,305.15v-54.99h8.69v54.99H1246.38z"/>
		<path class="st3" d="M1270.6,261.24c-1.42,0-2.65-0.45-3.69-1.35c-1.04-0.9-1.56-2.11-1.56-3.62c0-1.03,0.29-1.98,0.86-2.82
			c0.58-0.85,1.31-1.52,2.22-2.03c0.9-0.51,1.85-0.76,2.84-0.76c1.69,0,2.98,0.47,3.87,1.42c0.89,0.95,1.33,2.13,1.33,3.55
			c0,1.6-0.59,2.94-1.76,4.01C1273.55,260.71,1272.17,261.24,1270.6,261.24z M1266.74,305.15v-37.61h8.63v37.61H1266.74z"/>
		<path class="st3" d="M1297.69,305.69c-1.96,0-3.64-0.31-5.04-0.95c-1.4-0.63-2.47-1.7-3.23-3.19c-0.76-1.5-1.13-3.58-1.13-6.24
			v-21.65h-4.77v-4.64c1.67-0.47,2.96-0.89,3.89-1.25c0.92-0.36,1.6-1.08,2.03-2.16c0.18-0.5,0.39-1.09,0.62-1.78
			c0.24-0.69,0.5-1.45,0.78-2.28c0.28-0.83,0.58-1.72,0.89-2.67h5.17v8.59h10.42v6.19h-10.42v17.45c0,2.42,0.11,4.17,0.34,5.28
			c0.23,1.1,0.64,1.81,1.25,2.11c0.61,0.3,1.49,0.46,2.64,0.46c0.63,0,1.35-0.08,2.15-0.22c0.8-0.15,1.57-0.34,2.3-0.56
			c0.73-0.23,1.3-0.46,1.71-0.71l1.32,4.9c-0.66,0.54-1.57,1.07-2.74,1.57c-1.17,0.51-2.47,0.92-3.89,1.25
			C1300.56,305.53,1299.13,305.69,1297.69,305.69z"/>
		<path class="st3" d="M1330.84,305.69c-5.55,0-9.82-1.72-12.8-5.16c-2.99-3.44-4.48-8.2-4.48-14.29c0-3.66,0.67-6.93,2.01-9.81
			c1.34-2.89,3.3-5.17,5.89-6.85c2.58-1.68,5.75-2.54,9.52-2.59c1.92-0.05,3.72,0.21,5.43,0.78c1.7,0.56,3.21,1.44,4.53,2.62
			c1.32,1.18,2.38,2.7,3.16,4.53c0.79,1.84,1.21,4.02,1.25,6.55c0,1.4-0.01,2.67-0.03,3.8c-0.02,1.14-0.12,2.13-0.31,2.96h-26.58
			l0.68-5.14h18.2c0.11-1.81,0-3.48-0.32-5.02c-0.33-1.55-0.99-2.78-2-3.7c-1-0.92-2.47-1.39-4.42-1.39c-1.69,0-3.2,0.47-4.51,1.4
			s-2.33,2.53-3.04,4.77c-0.71,2.25-1.01,5.33-0.9,9.25c0.11,2.7,0.66,4.85,1.62,6.44s2.25,2.72,3.86,3.4
			c1.6,0.68,3.4,1.01,5.41,1.01c0.92,0,2.02-0.09,3.28-0.27s2.47-0.42,3.62-0.73c1.15-0.31,2.03-0.64,2.64-1l1.59,4.87
			c-0.83,0.68-1.97,1.28-3.42,1.81c-1.45,0.53-3.03,0.95-4.75,1.27C1334.23,305.53,1332.53,305.69,1330.84,305.69z M1328.77,262.49
			l-3.92-3.38c1.22-1.28,2.49-2.7,3.8-4.24c1.32-1.55,2.61-3.14,3.87-4.81c1.26-1.66,2.41-3.28,3.45-4.88l5.65,4.56
			c-0.36,0.7-0.95,1.55-1.78,2.54c-0.82,0.99-1.75,2.03-2.79,3.11c-1.04,1.08-2.1,2.12-3.18,3.13c-1.08,1.01-2.07,1.86-2.98,2.57
			C1330,261.8,1329.29,262.27,1328.77,262.49z"/>
		<path class="st3" d="M1351.97,302.85l1.08-6.25c0.36,0.27,1.08,0.62,2.17,1.06c1.08,0.44,2.38,0.84,3.89,1.2
			c1.51,0.36,3.07,0.56,4.67,0.58c2.12,0.02,3.72-0.32,4.8-1.03c1.08-0.71,1.62-1.71,1.62-2.99c0-0.92-0.33-1.73-1-2.41
			c-0.67-0.68-1.58-1.3-2.74-1.88c-1.16-0.57-2.47-1.18-3.94-1.81c-2.16-0.95-4.03-1.98-5.6-3.08c-1.57-1.11-2.77-2.39-3.6-3.86
			c-0.84-1.46-1.24-3.21-1.22-5.24c0.05-2.28,0.7-4.17,1.98-5.66c1.27-1.5,2.98-2.63,5.11-3.37c2.13-0.74,4.5-1.11,7.12-1.11
			c2.5,0,4.67,0.25,6.51,0.74c1.84,0.5,3.06,0.92,3.67,1.28l-1.12,6.39c-0.43-0.34-1.08-0.68-1.94-1.05
			c-0.87-0.36-1.87-0.65-2.99-0.86c-1.13-0.21-2.27-0.32-3.42-0.32c-2.28,0-3.97,0.31-5.09,0.93c-1.12,0.62-1.69,1.49-1.71,2.62
			c-0.02,1.51,0.53,2.64,1.64,3.4c1.12,0.75,2.52,1.51,4.21,2.28c2.46,1.13,4.62,2.24,6.48,3.33c1.86,1.1,3.31,2.35,4.35,3.75
			s1.56,3.14,1.56,5.2c0,3.61-1.25,6.34-3.75,8.2c-2.5,1.86-5.91,2.79-10.21,2.79c-1.81,0-3.55-0.14-5.23-0.42
			c-1.68-0.29-3.16-0.64-4.45-1.08S1352.58,303.3,1351.97,302.85z"/>
	</g>
</g>
</svg>
