<?xml version="1.0" encoding="utf-8"?>
<!-- Generator: $$$/GeneralStr/196=Adobe Illustrator 27.6.0, SVG Export Plug-In . SVG Version: 6.00 Build 0)  -->
<svg version="1.1" id="Calque_1" xmlns="http://www.w3.org/2000/svg" xmlns:xlink="http://www.w3.org/1999/xlink" x="0px" y="0px"
	 viewBox="0 0 1280 380" style="enable-background:new 0 0 1280 380;" xml:space="preserve">
<style type="text/css">
	.st0{fill:#084D49;}
	.st1{fill:#FAD6C4;}
</style>
<g>
	<circle class="st0" cx="190.67" cy="189.7" r="187.54"/>
	<g>
		<path class="st1" d="M193.04,195.31c-0.02-0.02-0.05-0.04-0.08-0.06l0-0.01c0,0-0.01,0-0.01-0.01c-0.18-0.14-0.38-0.3-0.61-0.47
			c-10.04-7.71-61.05-45.24-101.31-44.49c-4.67-0.05-9.18,0.62-13.44,1.9c-6.73,1.91-12.91,5.33-18.22,10.68l0,0
			c-8.22,7.91-13.46,18.93-13.78,31.24c-0.38,14.39,6.03,27.38,16.32,35.89c14.84,12.59,38.43,13.07,43.37,13.03
			c0.01,0,0.03,0,0.04,0c0.57-3.6,1.44-7.1,2.59-10.48l0.05,0.12c-0.05,0.11-0.07,0.17-0.07,0.17l5.05,11.1l0,0h0l29.94,65.87
			c5.18,2.19,10.72,3.7,16.5,4.42l-27.42-60.58l0.09,0.05l-16.41-36.51c2.79-4.05,6.04-7.75,9.68-11.04l0.2,0.44c0,0,0,0,0,0
			l48.96,107.71c4.6-0.53,9.05-1.56,13.3-3.03l-38.56-84.83l-0.1-0.21l-12.4-28.27c3.74-2.1,7.71-3.83,11.87-5.14l50.89,112.96
			c3.93-2.37,7.59-5.16,10.9-8.31l-48.76-107.27c1.94-0.18,3.9-0.27,5.89-0.27c2.74,0,5.43,0.18,8.07,0.52l34.33,74.11l10.19,21.08
			c3.11-4.9,5.56-10.27,7.22-15.97l-34.35-74.37C193,195.29,193.02,195.3,193.04,195.31z"/>
		<path class="st1" d="M67.47,149.75c5.78-4.85,12.24-7.71,19.11-9c4.35-0.89,8.91-1.15,13.56-0.69c35.33,2.52,76.3,35.31,91.98,49
			h0l0,0c1.23,1.08,2.31,2.03,3.21,2.85l1.06,0.94l0,0l8.87,7.87l0,0c2.09,1.81,4.19,3.57,5.81,4.84l-7.71-9.82
			c-0.74-0.96-1.63-2.1-2.65-3.38l0,0v0c-12.97-16.27-47.41-55.86-81.72-64.67c-4.49-1.29-9.02-1.85-13.46-1.75
			c-6.99,0.04-13.86,1.69-20.41,5.44l0,0c-7.91,4.28-14.54,10.93-18.76,19.32C66.72,150.37,67.1,150.06,67.47,149.75L67.47,149.75z"
			/>
		<path class="st1" d="M290.55,137.15c-1.61-0.38-3.21-0.68-4.82-0.93l0.81-38.24c0.43-5.44,0.89-14.84-0.57-19.41
			c-0.29-1.22-0.71-2.43-1.28-3.6c-4.19-8.65-14.67-12.29-23.39-8.14c-8.73,4.15-12.4,14.53-8.21,23.17
			c4.19,8.65,14.67,12.29,23.39,8.14c1.33-0.63,2.55-1.42,3.64-2.31l-0.39,5.38v0l-0.11,1.56l0,0l-2.29,32.76
			c-8.6-0.11-16.97,1.6-24.62,4.85l-21.43-32.13c-2.76-4.71-7.77-12.68-11.58-15.59c-0.93-0.84-1.97-1.59-3.11-2.23
			c-8.39-4.69-19.06-1.69-23.84,6.71s-1.85,19.01,6.53,23.7c8.39,4.69,19.06,1.69,23.84-6.71c0.73-1.28,1.28-2.62,1.66-3.98
			l2.76,4.64l0,0l0.8,1.34l0,0l16.82,28.09c-13.4,8.05-23.66,21.21-27.56,37.52c-7.7,32.28,12.47,64.65,45.06,72.3
			c32.59,7.65,65.25-12.32,72.95-44.6C343.31,177.16,323.14,144.79,290.55,137.15z M308.14,182.37
			c-4.86,8.29-15.59,11.11-23.96,6.29c-8.37-4.82-11.22-15.45-6.36-23.74s15.59-11.11,23.96-6.29
			C310.15,163.45,313,174.08,308.14,182.37z"/>
		<path class="st1" d="M114.77,277.85c0,0-4.98-8.8-5.59-19.9l-10.39,27.91l28.12,8.61C118.61,287.23,114.77,277.85,114.77,277.85z"
			/>
	</g>
</g>
<g>
	<path class="st0" d="M426.9,249.57V143.05l8.88,0.14c2.34,0,4.74-0.08,7.2-0.24c2.46-0.17,5.09-0.34,7.91-0.5
		c2.81-0.17,5.99-0.26,9.52-0.26c8.49,0,15.44,1.06,20.83,3.18c5.4,2.13,9.36,5.12,11.92,8.95c2.55,3.85,3.83,8.37,3.83,13.58
		c0,3.44-0.56,6.85-1.68,10.23c-1.12,3.39-2.87,6.36-5.26,8.91c-2.38,2.55-5.44,4.33-9.16,5.34c4.3,0.29,8.15,1.61,11.57,3.97
		c3.41,2.37,6.13,5.38,8.16,9.05c2.03,3.68,3.04,7.71,3.04,12.1c0,6.5-1.3,12.22-3.9,17.19c-2.6,4.96-7.04,8.86-13.31,11.68
		c-6.28,2.81-14.98,4.22-26.1,4.22c-4.3,0-8.73-0.13-13.32-0.4c-4.58-0.26-8.19-0.47-10.81-0.61H426.9z M445.38,188.22
		c1.14,0.19,2.44,0.31,3.9,0.38c1.46,0.08,2.96,0.1,4.51,0.08c1.56-0.02,3.05-0.05,4.47-0.05c1.43,0,2.72,0,3.87,0
		c5.01,0,9.08-1.49,12.21-4.47c3.13-2.97,4.69-7.62,4.69-13.92c0-5.24-1.85-9.08-5.55-11.49c-3.7-2.4-8.99-3.61-15.86-3.61
		c-0.82,0-2.09,0.03-3.83,0.1s-3.42,0.19-5.05,0.33c-1.62,0.14-2.74,0.34-3.36,0.57V188.22z M445.38,235.89
		c0.76,0.43,2.11,0.77,4.04,1.01c1.93,0.23,4,0.4,6.19,0.5c2.19,0.09,4.13,0.14,5.8,0.14c7.35,0,13.08-1.38,17.18-4.11
		c4.11-2.75,6.16-7.59,6.16-14.51c0-6.06-1.86-10.51-5.58-13.34c-3.72-2.84-9.55-4.26-17.47-4.26c-1.24,0-2.62-0.01-4.15-0.03
		c-1.53-0.02-3.06-0.01-4.59,0.03c-1.53,0.05-2.95,0.09-4.26,0.14c-1.31,0.05-2.42,0.15-3.33,0.29V235.89z"/>
	<path class="st0" d="M553.12,250.72c-11.75,0-20.78-3.64-27.1-10.92c-6.33-7.27-9.49-17.36-9.49-30.24
		c0-7.74,1.42-14.66,4.26-20.76c2.84-6.12,6.99-10.94,12.46-14.5c5.47-3.57,12.18-5.38,20.15-5.48c4.06-0.1,7.88,0.45,11.49,1.64
		c3.6,1.19,6.8,3.04,9.59,5.55c2.8,2.51,5.03,5.71,6.69,9.59c1.67,3.89,2.56,8.52,2.65,13.85c0,2.96-0.02,5.65-0.07,8.05
		c-0.05,2.41-0.26,4.51-0.65,6.27h-56.27l1.43-10.88h38.52c0.23-3.82,0.01-7.36-0.68-10.63c-0.69-3.27-2.1-5.88-4.22-7.84
		c-2.13-1.96-5.24-2.94-9.35-2.94c-3.58,0-6.76,0.99-9.56,2.97c-2.79,1.98-4.94,5.35-6.44,10.09c-1.5,4.75-2.14,11.28-1.9,19.59
		c0.24,5.72,1.39,10.27,3.44,13.63c2.05,3.37,4.77,5.77,8.16,7.2c3.39,1.43,7.21,2.14,11.45,2.14c1.96,0,4.27-0.19,6.94-0.57
		s5.23-0.9,7.66-1.54c2.44-0.65,4.29-1.35,5.58-2.12l3.37,10.31c-1.77,1.43-4.18,2.72-7.23,3.83c-3.06,1.12-6.41,2.02-10.06,2.68
		C560.31,250.39,556.7,250.72,553.12,250.72z"/>
	<path class="st0" d="M634.02,250.72c-11.75,0-20.78-3.64-27.1-10.92c-6.33-7.27-9.49-17.36-9.49-30.24
		c0-7.74,1.42-14.66,4.26-20.76c2.84-6.12,6.99-10.94,12.46-14.5c5.47-3.57,12.18-5.38,20.15-5.48c4.06-0.1,7.88,0.45,11.49,1.64
		c3.6,1.19,6.8,3.04,9.59,5.55c2.8,2.51,5.03,5.71,6.69,9.59c1.67,3.89,2.56,8.52,2.65,13.85c0,2.96-0.02,5.65-0.07,8.05
		c-0.05,2.41-0.26,4.51-0.65,6.27h-56.27l1.43-10.88h38.52c0.23-3.82,0.01-7.36-0.68-10.63c-0.69-3.27-2.1-5.88-4.22-7.84
		c-2.13-1.96-5.24-2.94-9.35-2.94c-3.58,0-6.76,0.99-9.56,2.97c-2.79,1.98-4.94,5.35-6.44,10.09c-1.5,4.75-2.14,11.28-1.9,19.59
		c0.24,5.72,1.39,10.27,3.44,13.63s4.77,5.77,8.16,7.2c3.39,1.43,7.21,2.14,11.45,2.14c1.96,0,4.27-0.19,6.95-0.57
		c2.67-0.38,5.23-0.9,7.66-1.54c2.44-0.65,4.29-1.35,5.58-2.12l3.37,10.31c-1.77,1.43-4.18,2.72-7.23,3.83
		c-3.06,1.12-6.41,2.02-10.06,2.68C641.21,250.39,637.6,250.72,634.02,250.72z"/>
	<path class="st0" d="M683.92,249.57V143.19h18.54v91.5h40.74v14.89H683.92z"/>
	<path class="st0" d="M787.73,250.72c-11.75,0-20.78-3.64-27.1-10.92c-6.33-7.27-9.49-17.36-9.49-30.24
		c0-7.74,1.42-14.66,4.26-20.76c2.84-6.12,6.99-10.94,12.46-14.5c5.47-3.57,12.18-5.38,20.15-5.48c4.06-0.1,7.88,0.45,11.49,1.64
		c3.6,1.19,6.8,3.04,9.59,5.55c2.8,2.51,5.03,5.71,6.69,9.59c1.67,3.89,2.56,8.52,2.65,13.85c0,2.96-0.02,5.65-0.07,8.05
		c-0.05,2.41-0.26,4.51-0.65,6.27h-56.27l1.43-10.88h38.52c0.23-3.82,0.01-7.36-0.68-10.63c-0.69-3.27-2.1-5.88-4.22-7.84
		c-2.13-1.96-5.24-2.94-9.35-2.94c-3.58,0-6.76,0.99-9.56,2.97c-2.79,1.98-4.94,5.35-6.44,10.09c-1.5,4.75-2.14,11.28-1.9,19.59
		c0.24,5.72,1.39,10.27,3.44,13.63s4.77,5.77,8.16,7.2c3.39,1.43,7.21,2.14,11.45,2.14c1.96,0,4.27-0.19,6.95-0.57
		c2.67-0.38,5.23-0.9,7.66-1.54c2.44-0.65,4.29-1.35,5.58-2.12l3.37,10.31c-1.77,1.43-4.18,2.72-7.23,3.83
		c-3.06,1.12-6.41,2.02-10.06,2.68C794.92,250.39,791.31,250.72,787.73,250.72z"/>
	<path class="st0" d="M856.6,250.72c-4.86,0-9.18-0.97-12.92-2.9c-3.75-1.92-6.68-4.66-8.8-8.19c-2.13-3.53-3.19-7.68-3.19-12.46
		c0-5.06,1.36-9.36,4.08-12.89s6.37-6.28,10.95-8.24c3.11-1.28,6.46-2.28,10.06-3.01c3.6-0.71,7.22-1.22,10.84-1.54
		c3.63-0.3,6.99-0.47,10.1-0.47l3.51,4.44l-3.51,6.16c-1.81,0-3.95,0.13-6.41,0.38c-2.46,0.27-4.85,0.66-7.2,1.19
		c-2.34,0.52-4.32,1.17-5.94,1.93c-2.24,1-4.15,2.31-5.73,3.94c-1.57,1.62-2.36,3.94-2.36,6.94c0,3.96,1.1,6.93,3.29,8.91
		s5.33,2.97,9.38,2.97c2.1,0,4.2-0.3,6.3-0.9c2.1-0.59,3.94-1.29,5.51-2.07c1.58-0.79,2.63-1.49,3.15-2.12l3.44,3.87l-2.44,6.15
		c-2.1,1.91-5.09,3.71-8.98,5.37C865.84,249.89,861.47,250.72,856.6,250.72z M896.05,249.57h-17.33v-11.89h-1v-43.6
		c0-4.49-1.18-7.45-3.54-8.87c-2.37-1.43-5.72-2.16-10.06-2.16c-3.01,0-6.12,0.29-9.34,0.86c-3.22,0.57-6.21,1.31-8.95,2.18
		c-2.74,0.89-4.93,1.81-6.55,2.76l-4.15-12.53c1.29-0.77,3.54-1.76,6.76-2.97c3.22-1.22,6.97-2.32,11.24-3.3s8.51-1.47,12.71-1.47
		c6.44,0,11.91,0.75,16.4,2.23c4.49,1.48,7.91,4.15,10.28,8.02c2.36,3.87,3.54,9.38,3.54,16.54V249.57z"/>
	<path class="st0" d="M917.52,249.57v-79.61h15.68l1.15,10.88l1.43,5.29v63.44H917.52z M934.78,193.23l-1-12.39
		c0.76-1.77,2.3-3.59,4.59-5.48s5-3.47,8.12-4.77c3.13-1.28,6.36-1.93,9.7-1.93c1.67,0,3.15,0.07,4.44,0.22
		c1.29,0.14,2.24,0.41,2.87,0.78v17.4c-0.72-0.43-1.79-0.85-3.22-1.28c-1.43-0.43-3.7-0.65-6.81-0.65c-3.1,0-5.86,0.44-8.27,1.33
		c-2.41,0.89-4.49,1.96-6.23,3.23C937.22,190.95,935.82,192.13,934.78,193.23z"/>
	<path class="st0" d="M978.23,249.57v-79.61h16.47l0.15,8.59c1.91-1.39,4.33-2.83,7.27-4.33s6.12-2.77,9.56-3.82
		c3.43-1.05,6.89-1.62,10.38-1.72c8.45-0.23,14.57,1.97,18.36,6.63c3.79,4.65,5.69,12.79,5.69,24.45v49.83h-18.4v-48.25
		c0-6.54-0.87-11.2-2.61-13.96c-1.75-2.77-5.38-4.01-10.92-3.73c-1.58,0.06-3.39,0.34-5.44,0.86c-2.06,0.52-4.14,1.28-6.26,2.26
		c-2.13,0.98-4.14,2.2-6.05,3.68v59.14H978.23z"/>
	<path class="st0" d="M1077.96,156.64c-3.01,0-5.61-0.96-7.8-2.87c-2.2-1.9-3.3-4.46-3.3-7.66c0-2.19,0.61-4.19,1.83-5.98
		c1.22-1.79,2.78-3.23,4.69-4.3c1.91-1.07,3.91-1.61,6.01-1.61c3.58,0,6.31,1,8.2,3.01c1.88,2,2.83,4.51,2.83,7.52
		c0,3.39-1.24,6.22-3.72,8.48C1084.21,155.51,1081.3,156.64,1077.96,156.64z M1069.8,249.57v-79.61h18.26v79.61H1069.8z"/>
	<path class="st0" d="M1112.47,249.57v-79.61h16.47l0.15,8.59c1.91-1.39,4.33-2.83,7.27-4.33c2.94-1.5,6.12-2.77,9.56-3.82
		c3.43-1.05,6.89-1.62,10.38-1.72c8.45-0.23,14.57,1.97,18.36,6.63c3.79,4.65,5.69,12.79,5.69,24.45v49.83h-18.4v-48.25
		c0-6.54-0.87-11.2-2.61-13.96c-1.75-2.77-5.38-4.01-10.92-3.73c-1.58,0.06-3.39,0.34-5.44,0.86c-2.06,0.52-4.14,1.28-6.26,2.26
		c-2.13,0.98-4.14,2.2-6.05,3.68v59.14H1112.47z"/>
	<path class="st0" d="M1233.18,285.66c-11.17-0.06-19.82-2.05-25.95-5.98c-6.14-3.94-9.2-9.82-9.2-17.65c0-2.91,0.7-5.51,2.11-7.81
		c1.41-2.28,3.2-4.23,5.37-5.83c2.17-1.61,4.43-2.81,6.76-3.62l11.17,1.43c-0.91,0.82-1.96,1.72-3.15,2.73
		c-1.19,1-2.23,2.31-3.11,3.94c-0.89,1.62-1.32,3.76-1.32,6.44c0,3.01,0.58,5.62,1.75,7.83c1.17,2.23,3.06,3.95,5.69,5.2
		c2.62,1.24,6.15,1.86,10.59,1.86c4.01,0,7.68-0.44,11.03-1.33c3.34-0.89,6.01-2.21,8.02-3.97c2-1.77,3.01-4.01,3.01-6.74
		c0-2.67-0.49-4.95-1.47-6.83c-0.98-1.89-2.8-3.34-5.48-4.37c-2.67-1.03-6.59-1.54-11.74-1.54h-9.67c-2.44,0-4.59-0.08-6.44-0.26
		c-1.86-0.16-3.55-0.44-5.09-0.82c-0.71-0.2-1.3-0.44-1.75-0.76s-1.04-0.56-1.75-0.75c-3.58-1.29-6.04-3.08-7.37-5.34
		c-1.34-2.27-2-4.7-2-7.27c0.05-1.86,0.52-3.76,1.43-5.72c0.91-1.96,2.27-3.85,4.08-5.66c1.81-1.81,4.03-3.41,6.66-4.79l10.95,2.44
		c-1.77,0.71-3.31,1.86-4.62,3.47c-1.31,1.6-1.97,3.27-1.97,5.05c0,2.72,0.72,4.57,2.15,5.55s3.84,1.47,7.23,1.47h14.32
		c6.15,0,11.19,0.63,15.1,1.9c3.92,1.26,6.96,2.96,9.13,5.08s3.68,4.51,4.51,7.15c0.83,2.66,1.25,5.36,1.25,8.13
		c0,4.33-1.06,8.22-3.19,11.63c-2.12,3.41-5.06,6.29-8.8,8.62c-3.75,2.34-8.05,4.11-12.89,5.3S1238.57,285.66,1233.18,285.66z
		 M1232.46,222.43c-6.15,0-11.68-1.08-16.57-3.25c-4.89-2.17-8.73-5.24-11.53-9.21c-2.79-3.96-4.18-8.56-4.18-13.81
		c0-6.12,1.39-11.19,4.18-15.22c2.8-4.03,6.64-7.04,11.53-9.02c4.89-1.98,10.49-3.02,16.79-3.11c6.25-0.1,11.87,0.8,16.86,2.72
		c4.99,1.91,8.95,4.84,11.89,8.77c2.94,3.94,4.4,8.96,4.4,15.07c0,5.83-1.39,10.76-4.15,14.79c-2.77,4.03-6.66,7.08-11.67,9.16
		S1239.14,222.43,1232.46,222.43z M1232.82,211.2c4.68,0,8.41-1.06,11.2-3.19c2.79-2.12,4.19-6.16,4.19-12.13
		c0-5.06-1.21-8.9-3.62-11.52c-2.41-2.62-6.09-3.94-11.06-3.94c-2.87,0-5.48,0.42-7.84,1.25c-2.36,0.84-4.24,2.35-5.62,4.56
		c-1.39,2.19-2.08,5.31-2.08,9.37c0,4.21,1.16,7.85,3.47,10.95C1223.78,209.65,1227.57,211.2,1232.82,211.2z M1256.8,183.28
		l-4.15-7.45c1-1.29,3.03-2.69,6.08-4.19s6.49-2.25,10.31-2.25h8.45v13.89H1256.8z"/>
</g>
</svg>
